<?xml version="1.0" encoding="iso-8859-1"?>
<!-- Generator: Adobe Illustrator 19.0.0, SVG Export Plug-In . SVG Version: 6.00 Build 0)  -->
<svg version="1.1" id="Capa_1" xmlns="http://www.w3.org/2000/svg" xmlns:xlink="http://www.w3.org/1999/xlink" x="0px" y="0px"
	 viewBox="0 0 470 470" style="enable-background:new 0 0 470 470;" xml:space="preserve">
<g>
	<path d="M235,172.665c25.459,0,46.172-20.712,46.172-46.171S260.459,80.322,235,80.322s-46.171,20.712-46.171,46.171
		S209.541,172.665,235,172.665z M235,95.322c17.188,0,31.172,13.983,31.172,31.171S252.188,157.665,235,157.665
		c-17.188,0-31.171-13.983-31.171-31.171S217.812,95.322,235,95.322z"/>
	<path d="M457.145,92.3c0-11.482-5.438-21.718-13.875-28.267c8.437-6.549,13.875-16.784,13.875-28.267
		C457.145,16.045,441.1,0,421.378,0c-27.58,0-93.932,8.737-114.352,89.66l-28.188,111.71c-12.556-8.651-27.702-13.699-43.838-13.699
		c-16.139,0-31.286,5.048-43.839,13.698L162.974,89.66C142.554,8.737,76.202,0,48.623,0C28.9,0,12.855,16.045,12.855,35.767
		c0,11.482,5.438,21.718,13.875,28.267C18.294,70.583,12.855,80.818,12.855,92.3s5.438,21.718,13.875,28.267
		c-8.437,6.549-13.875,16.784-13.875,28.267s5.438,21.718,13.875,28.267c-8.437,6.549-13.875,16.785-13.875,28.267
		c0,19.722,16.045,35.766,35.767,35.766h44.483c3.446,31.027,28.021,55.757,58.966,59.477l-10.924,81.417
		c-0.454,3.422,1.137,6.151,3.689,8.421l-6.793,50.663c-0.234,1.767-0.012,4.444,2.375,7.167C147.055,455.853,181.611,470,235,470
		c57.768,0,92.012-20.635,93.441-21.513c0.643-0.395,1.222-0.884,1.718-1.452c2.241-2.562,2.077-3.793,1.162-10.627l-6.275-46.829
		c0.135-0.08,0.242-0.144,0.292-0.175c0.643-0.395,1.222-0.884,1.718-1.452c2.24-2.561,1.899-5.112,1.599-7.362l-10.718-79.981
		c30.941-3.724,55.511-28.452,58.957-59.476h44.484c19.722,0,35.767-16.044,35.767-35.766c0-11.482-5.438-21.718-13.875-28.267
		c8.437-6.549,13.875-16.784,13.875-28.267s-5.438-21.718-13.875-28.267C451.706,114.018,457.145,103.783,457.145,92.3z
		 M421.378,169.6h-41.57c-4.143,0-7.5,3.358-7.5,7.5s3.357,7.5,7.5,7.5h41.57c11.451,0,20.767,9.316,20.767,20.767
		c0,11.451-9.315,20.766-20.767,20.766h-51.57c-4.143,0-7.5,3.358-7.5,7.5c0,26.867-20.299,49.07-46.363,52.111l-4.151-30.976
		c-1.235-9.166-4.084-17.782-8.212-25.601c1.553-2.988,0.947-6.756-1.695-9.082c-1.523-1.341-3.437-1.948-5.316-1.858
		c-1.577-2.059-3.251-4.037-5.02-5.924L321.571,93.33C338.768,25.176,391.484,15,421.378,15c11.451,0,20.767,9.316,20.767,20.767
		c0,11.451-9.315,20.767-20.767,20.767h-21.565c-4.143,0-7.5,3.358-7.5,7.5s3.357,7.5,7.5,7.5h21.565
		c11.451,0,20.767,9.316,20.767,20.767s-9.315,20.767-20.767,20.767h-31.567c-4.143,0-7.5,3.358-7.5,7.5s3.357,7.5,7.5,7.5h31.567
		c11.451,0,20.767,9.316,20.767,20.767S432.829,169.6,421.378,169.6z M235,395.21c-8.145,0-16.265-0.377-24.134-1.122
		c-4.083-0.383-7.712,2.583-8.157,6.65c-0.004,0.037-0.013,0.073-0.016,0.11c-0.39,4.124,2.637,7.783,6.76,8.173
		c8.337,0.789,16.933,1.188,25.547,1.188c34.864,0,60.869-7.78,75.824-13.832c2.702,20.164,4.616,34.445,5.567,41.548
		C306.056,443.006,277.182,455,235,455c-44.837,0-73.787-10.766-81.614-15.438l5.568-41.527c4.78,1.864,11.318,4.021,19.853,6.042
		c4.034,0.955,8.072-1.54,9.027-5.57c0.012-0.049,0.016-0.098,0.027-0.147c0.86-3.981-1.616-7.937-5.597-8.88
		c-13.018-3.083-21.49-6.671-25.375-8.849c-0.127-0.081-0.257-0.158-0.389-0.232c5.871-43.803,16.239-121.114,16.575-123.51
		c0.006-0.041,0.012-0.081,0.018-0.122c0.766-5.709,2.306-11.156,4.499-16.246c16.036,13.281,36.314,20.701,57.408,20.701
		c21.098,0,41.38-7.422,57.417-20.709c2.197,5.092,3.742,10.542,4.511,16.254c0.149,1.111,13.197,98.451,16.362,122.089
		C303.261,383.794,275.676,395.21,235,395.21z M100.192,226.133H48.623c-11.451,0-20.767-9.315-20.767-20.766
		c0-11.451,9.316-20.767,20.767-20.767h41.569c4.142,0,7.5-3.358,7.5-7.5s-3.358-7.5-7.5-7.5H48.623
		c-11.451,0-20.767-9.316-20.767-20.767s9.316-20.767,20.767-20.767H80.19c4.142,0,7.5-3.358,7.5-7.5s-3.358-7.5-7.5-7.5H48.623
		c-11.451,0-20.767-9.316-20.767-20.767s9.316-20.767,20.767-20.767h21.565c4.142,0,7.5-3.358,7.5-7.5s-3.358-7.5-7.5-7.5H48.623
		c-11.451,0-20.767-9.316-20.767-20.767C27.855,24.316,37.171,15,48.623,15c29.893,0,82.609,10.176,99.807,78.33l30.021,118.975
		c-1.769,1.888-3.442,3.866-5.019,5.925c-1.88-0.092-3.796,0.516-5.32,1.858c-2.644,2.327-3.249,6.1-1.69,9.089
		c-4.123,7.817-6.966,16.432-8.196,25.596l0.058,0.008c-0.1,0.442-0.184,0.912-0.252,1.413l-3.965,29.552
		c-26.07-3.035-46.375-25.241-46.375-52.113C107.692,229.491,104.334,226.133,100.192,226.133z M284.69,227.358
		c-13.637,12.069-31.286,18.864-49.69,18.864c-18.402,0-36.05-6.794-49.687-18.861c11.51-15.065,29.654-24.69,49.688-24.69
		C255.028,202.671,273.173,212.295,284.69,227.358z"/>
	<path d="M208.608,65.322h52.783c4.143,0,7.5-3.358,7.5-7.5s-3.357-7.5-7.5-7.5h-52.783c-4.142,0-7.5,3.358-7.5,7.5
		S204.466,65.322,208.608,65.322z"/>
</g>
<g>
</g>
<g>
</g>
<g>
</g>
<g>
</g>
<g>
</g>
<g>
</g>
<g>
</g>
<g>
</g>
<g>
</g>
<g>
</g>
<g>
</g>
<g>
</g>
<g>
</g>
<g>
</g>
<g>
</g>
</svg>
