<svg width="351" height="145" xmlns="http://www.w3.org/2000/svg">
 <defs>
  <style type="text/css">
   <![CDATA[
    .fil0 {fill:#989898}
   ]]>
  </style>
 </defs>
 <g>
  <title>background</title>
  <rect fill="none" id="canvas_background" height="147" width="353" y="-1" x="-1"/>
 </g>
 <g>
  <title>Layer 1</title>
  <g id="Слой_x0020_1">
   <metadata transform="translate(0,-2) translate(-4,0) translate(4,2) translate(-3,0) translate(0,3) translate(-3,0) translate(0.48516273498535156,0) translate(1.4851628541946411,5.758337497711182) " id="CorelCorpID_0Corel-Layer"/>
   <path id="svg_1" d="m270,72c0,0 -23,4 -26,5c-8,2 -16,4 -24,7c-13,6 -7,7 -20,-1c-3,-1 -20,-11 -20,-11c0,-1 17,-11 20,-12c13,-7 7,-6 20,-1c8,3 16,6 24,8c3,1 26,5 26,5zm45,64c14,-4 32,-18 34,-34c1,-4 0,-9 -1,-13c-5,-12 -18,-16 -19,-17c1,-2 13,-5 19,-17c1,-5 2,-9 1,-14c0,0 0,-1 0,-1c-4,-15 -20,-28 -34,-32c-27,-8 -46,7 -68,20c-9,5 -19,11 -28,16c-2,1 -5,3 -7,4c-3,2 -5,0 -7,-2c-15,-9 -25,-21 -29,-38l-1,0c-4,17 -14,29 -28,38c-3,2 -5,4 -8,2c-2,-1 -4,-3 -7,-4c-9,-5 -19,-11 -28,-16c-22,-13 -40,-28 -68,-20c-13,4 -30,17 -34,31c0,1 0,1 0,2c-1,5 0,9 2,14c5,12 17,15 18,17c0,0 -8,4 -11,7c-7,6 -11,14 -9,23c0,1 0,1 0,2c4,14 21,28 34,32c28,8 46,-7 68,-20c9,-5 19,-11 28,-16c3,-2 5,-3 7,-4c3,-2 5,0 7,1c5,3 9,6 13,10c8,8 13,18 16,29l1,0c4,-17 14,-30 29,-39c2,-1 4,-3 7,-1c2,1 4,2 7,4c9,5 19,11 28,16c22,13 40,28 68,20zm1,-5c-11,3 -21,3 -32,0c-13,-3 -56,-31 -70,-39c4,-4 37,-12 44,-14c8,-1 17,-2 25,-3c9,-1 19,-1 27,-2c1,0 -3,3 -3,3c-4,4 -6,9 -6,14c0,7 4,14 10,16c22,9 31,-16 16,-20l-1,4c2,2 5,2 4,7c-2,9 -17,9 -22,1c-8,-10 2,-25 15,-23c10,1 21,11 22,22c1,15 -16,29 -29,34zm-45,-113c13,-6 12,-7 29,-8c6,0 11,1 16,3c13,4 30,19 29,33c-1,11 -12,21 -22,23c-13,2 -23,-13 -15,-24c5,-7 20,-7 22,1c1,6 -2,6 -4,8l1,4c15,-5 6,-30 -16,-21c-6,3 -10,9 -10,16c0,8 4,13 9,18c-2,1 -46,-4 -52,-6c-6,-1 -40,-9 -44,-13c19,-11 44,-27 57,-34zm-220,116c-6,-1 -11,-2 -16,-3c-13,-5 -30,-19 -29,-34c1,-11 12,-20 22,-22c13,-2 23,13 15,23c-3,5 -11,7 -16,5c-3,-1 -5,-3 -6,-6c-1,-5 3,-5 4,-7l-1,-4c-14,4 -6,29 16,20c6,-2 10,-9 10,-16c0,-7 -3,-13 -9,-17c2,-1 46,4 52,5c7,2 41,10 44,14c-21,12 -62,42 -86,42zm-16,-121c5,-2 10,-3 16,-3c7,0 10,0 16,2c13,4 56,31 70,40c-3,4 -37,12 -44,13c-8,2 -17,3 -25,4c-9,1 -19,1 -27,2c0,0 3,-3 3,-3c10,-10 7,-26 -4,-31c-22,-9 -30,16 -16,21l1,-4c-1,-2 -5,-2 -4,-7c1,-3 3,-5 6,-6c5,-2 13,0 16,4c8,11 -1,26 -15,24c-10,-2 -21,-12 -22,-22c-1,-15 16,-30 29,-34zm111,39c0,0 8,-6 9,-6c6,-5 11,-10 15,-17c1,-1 6,-10 6,-10c0,0 4,11 12,19c2,3 5,5 8,8c2,2 7,4 9,6c0,0 -28,17 -29,17c-2,0 -26,-15 -30,-17zm30,73c-1,-1 -5,-12 -12,-19c-3,-3 -6,-5 -9,-8c-2,-2 -7,-5 -9,-6c0,-1 29,-17 30,-17c1,0 25,15 29,17c1,0 -8,5 -9,6c-6,5 -11,10 -15,16c-1,2 -5,11 -5,11zm-95,-53c0,0 23,-4 26,-5c8,-2 16,-5 24,-8c13,-5 8,-6 21,1c2,1 19,11 19,12c0,0 -17,10 -19,11c-13,8 -8,7 -21,1c-8,-3 -16,-5 -24,-7c-3,-1 -26,-5 -26,-5z" class="fil0"/>
  </g>
 </g>
</svg>