<?xml version="1.0" standalone="no"?>
<!DOCTYPE svg PUBLIC "-//W3C//DTD SVG 20010904//EN"
 "http://www.w3.org/TR/2001/REC-SVG-20010904/DTD/svg10.dtd">
<svg version="1.0" xmlns="http://www.w3.org/2000/svg"
 width="228.000000pt" height="228.000000pt" viewBox="0 0 228.000000 228.000000"
 preserveAspectRatio="xMidYMid meet">
<metadata>
Created by potrace 1.10, written by Peter Selinger 2001-2011
</metadata>
<g transform="translate(0.000000,228.000000) scale(0.100000,-0.100000)"
fill="#000000" stroke="none">
<path d="M972 2204 c-48 -51 -53 -51 -125 0 -27 20 -28 20 -47 1 -10 -11 -30
-40 -43 -65 -20 -39 -28 -45 -60 -48 -20 -2 -52 4 -72 14 -28 13 -38 14 -50 4
-8 -7 -15 -17 -15 -22 0 -5 -9 -29 -21 -54 l-20 -45 -52 6 c-68 9 -83 -7 -89
-92 -2 -35 -7 -65 -9 -68 -3 -3 -28 -8 -55 -11 -27 -4 -59 -13 -72 -21 -21
-13 -23 -19 -17 -66 8 -60 -4 -76 -68 -97 -51 -16 -61 -38 -37 -83 29 -55 22
-127 -13 -127 -18 0 -77 -56 -77 -73 0 -8 11 -26 25 -41 34 -37 31 -66 -10
-106 -19 -19 -35 -43 -35 -53 0 -10 16 -34 35 -54 52 -53 53 -73 11 -137 -20
-30 -36 -58 -35 -63 0 -4 23 -25 50 -46 54 -41 57 -53 26 -117 -23 -46 -17
-52 95 -98 36 -15 43 -47 23 -105 -9 -26 -14 -51 -11 -56 6 -9 75 -36 118 -45
27 -6 28 -9 28 -65 0 -68 3 -71 90 -71 49 0 61 -4 74 -22 9 -12 16 -32 16 -45
0 -12 10 -38 21 -58 16 -27 24 -33 34 -25 7 6 35 13 63 17 47 5 50 4 61 -23
27 -66 35 -74 67 -74 17 0 41 9 54 20 39 33 73 26 116 -25 22 -24 45 -47 53
-50 8 -3 33 7 55 23 23 16 46 32 53 35 6 4 32 -9 57 -28 26 -19 51 -35 57 -35
6 0 33 23 60 52 l49 52 64 -33 c35 -19 70 -31 78 -29 7 3 24 26 36 52 28 56
56 74 80 53 21 -19 64 -30 77 -20 12 9 31 48 41 83 4 14 14 35 22 48 14 21 20
22 73 16 72 -8 89 3 89 58 0 45 35 88 72 88 65 1 69 6 66 87 -2 64 0 77 17 89
10 8 24 14 31 14 7 0 29 9 48 21 42 25 45 45 14 99 -23 39 -23 39 -3 57 11 10
37 29 57 43 21 14 38 30 38 35 0 6 -10 26 -22 45 -48 75 -47 74 -19 112 14 19
34 42 44 52 25 26 21 49 -18 92 -19 22 -35 45 -35 53 0 7 14 31 31 53 29 36
30 42 19 64 -8 13 -17 24 -20 24 -12 0 -90 72 -90 83 0 6 6 18 14 26 8 9 18
33 24 53 9 32 7 39 -12 56 -11 11 -32 23 -46 27 -38 9 -49 34 -40 84 14 77 9
83 -92 96 -53 7 -58 15 -58 86 0 78 -10 89 -80 89 -55 0 -61 2 -74 28 -7 15
-17 41 -20 59 -9 40 -40 49 -98 28 -64 -22 -71 -19 -98 33 -14 26 -34 56 -44
68 -19 20 -19 21 -57 2 -21 -10 -41 -22 -44 -28 -3 -5 -10 -10 -16 -10 -8 0
-48 39 -87 85 -18 21 -23 20 -77 -21 -50 -39 -91 -46 -110 -20 -7 9 -17 16
-22 16 -5 0 -18 9 -28 20 -10 11 -23 20 -28 20 -6 0 -30 -21 -55 -46z m104
-35 l29 -30 -24 -18 c-20 -16 -28 -16 -59 -5 -44 15 -49 26 -25 58 24 34 43
32 79 -5z m227 -7 c18 -31 18 -32 0 -38 -10 -3 -26 -10 -36 -15 -21 -12 -77 9
-77 28 0 16 62 64 79 61 8 -2 23 -18 34 -36z m-444 -8 c39 -8 40 -31 3 -67
-31 -30 -79 -36 -88 -12 -6 15 32 85 46 85 4 0 22 -3 39 -6z m639 -40 c26 -42
22 -54 -21 -54 -52 0 -90 59 -54 82 26 16 53 6 75 -28z m-304 -29 c44 -41 46
-41 77 -16 13 10 38 21 55 25 27 6 35 3 59 -26 37 -45 69 -58 111 -45 28 9 37
7 54 -8 11 -10 20 -24 20 -32 0 -7 9 -22 21 -34 17 -17 31 -20 77 -17 l57 3
21 -52 c27 -70 49 -91 93 -95 35 -3 36 -4 39 -49 3 -52 31 -86 85 -104 l32
-10 -3 -65 c-2 -63 -1 -65 39 -106 39 -40 41 -44 30 -75 -17 -50 -13 -69 24
-110 19 -22 35 -46 35 -54 0 -7 -13 -34 -30 -58 l-30 -45 25 -46 c27 -51 25
-65 -14 -100 -25 -23 -28 -78 -5 -121 15 -29 15 -31 -13 -52 -70 -56 -81 -73
-85 -129 -3 -47 -5 -50 -45 -68 -44 -20 -53 -36 -53 -102 0 -46 -10 -54 -62
-54 -36 0 -88 -35 -88 -58 0 -38 -29 -62 -74 -62 -46 0 -78 -25 -103 -82 -14
-32 -37 -35 -79 -13 -41 21 -49 19 -93 -20 -29 -27 -47 -35 -75 -35 -23 0 -39
5 -42 15 -9 21 -20 19 -71 -15 -48 -33 -84 -38 -107 -15 -8 8 -19 15 -24 15
-5 0 -15 7 -22 15 -16 19 -56 19 -64 0 -10 -27 -58 -17 -99 20 -40 37 -50 40
-109 26 -30 -7 -40 -5 -57 11 -12 10 -21 24 -21 30 0 6 -13 24 -30 39 -23 22
-39 29 -70 29 -37 0 -41 3 -55 38 -22 56 -30 67 -51 70 -10 1 -36 8 -56 14
-34 10 -38 15 -38 45 0 41 -35 113 -55 113 -7 0 -26 10 -41 23 -24 21 -26 27
-17 53 14 42 3 71 -37 93 -19 10 -41 29 -49 43 -13 23 -13 28 7 53 30 38 28
76 -8 116 -28 33 -38 64 -22 71 4 2 15 18 25 36 17 34 17 34 -13 78 -16 25
-30 50 -30 56 0 6 18 31 41 55 31 34 39 50 34 66 -3 12 -9 38 -12 57 -4 31 -2
37 22 50 15 8 35 26 46 41 17 25 18 32 7 74 -12 45 -12 48 11 66 13 10 31 19
40 19 29 1 53 28 71 82 16 48 20 53 55 61 51 10 72 30 80 78 8 47 24 58 79 52
39 -5 45 -2 88 42 l47 47 53 -7 52 -7 42 48 42 48 54 -27 c29 -15 58 -27 63
-27 6 0 26 14 45 30 19 16 40 29 45 29 6 1 27 -15 49 -34z m-500 -34 c3 -5 -7
-23 -23 -40 -52 -55 -125 -35 -87 24 13 20 25 25 61 25 24 0 46 -4 49 -9z
m1010 -32 c20 -41 14 -49 -38 -49 -35 0 -47 5 -59 24 -19 28 -9 42 40 55 35
10 38 8 57 -30z m-1211 -107 c-1 -43 -20 -64 -52 -60 -22 3 -26 8 -25 36 3 54
10 64 46 60 30 -3 33 -6 31 -36z m1374 -30 c10 -36 10 -44 -3 -49 -34 -13 -61
6 -77 52 l-15 46 41 -3 c39 -3 42 -5 54 -46z m-1509 -101 c10 -6 9 -14 -5 -39
-17 -31 -66 -57 -84 -46 -11 6 -12 55 -1 70 14 22 66 31 90 15z m1627 -27 c34
-6 36 -8 33 -43 -3 -30 -7 -36 -28 -39 -35 -4 -85 47 -75 78 4 12 12 19 20 16
8 -3 30 -8 50 -12z m-1750 -175 c6 -34 3 -44 -16 -65 -29 -31 -42 -26 -50 17
-4 19 -9 41 -13 50 -5 11 3 19 26 30 18 8 36 14 40 12 3 -2 9 -21 13 -44z
m1885 -31 c0 -24 -28 -78 -40 -78 -26 0 -50 36 -50 76 0 22 3 43 6 46 3 3 23
-1 45 -10 26 -10 39 -21 39 -34z m-1952 -170 c2 -27 -3 -43 -22 -64 l-26 -29
-20 24 c-28 32 -25 50 12 83 39 35 52 32 56 -14z m1986 -18 c31 -28 34 -34 25
-59 -14 -41 -42 -45 -68 -10 -25 33 -29 99 -6 99 8 0 30 -14 49 -30z m-2031
-168 c27 -29 28 -112 2 -112 -22 0 -65 49 -65 73 0 20 26 57 40 57 4 0 14 -8
23 -18z m2087 -75 c0 -13 -60 -67 -75 -67 -25 0 -20 85 6 111 l21 21 24 -28
c13 -16 23 -33 24 -37z m-2040 -183 c0 -12 -9 -32 -19 -45 -17 -22 -21 -22
-45 -10 -32 17 -33 42 -5 88 l21 34 24 -22 c13 -12 24 -32 24 -45z m1992 -11
c17 -34 20 -47 10 -51 -7 -2 -19 -10 -27 -19 -28 -27 -50 -12 -53 37 -3 36 1
47 20 62 13 10 24 18 25 18 1 0 12 -21 25 -47z m-1974 -149 c47 -23 60 -103
17 -96 -44 8 -65 31 -65 72 0 45 4 47 48 24z m1908 -31 c32 -43 1 -93 -58 -93
-39 0 -38 39 3 79 36 36 38 37 55 14z m-1777 -177 c5 -11 12 -36 16 -53 6 -30
4 -33 -17 -33 -39 1 -58 23 -58 67 0 22 3 42 6 45 11 12 46 -5 53 -26z m1666
-46 c0 -40 -3 -44 -30 -52 -38 -10 -47 0 -43 48 2 31 8 39 28 45 39 11 45 5
45 -41z m-1562 -102 c12 -6 28 -14 36 -18 24 -11 37 -38 25 -50 -14 -14 -94
-1 -101 16 -5 15 4 64 12 64 3 0 15 -5 28 -12z m1425 -17 c10 -6 11 -17 5 -42
-8 -31 -13 -34 -52 -37 -58 -4 -70 9 -41 45 30 39 62 51 88 34z m-1235 -112
c13 -6 31 -26 39 -45 15 -33 15 -34 -8 -40 -44 -11 -73 3 -80 40 -10 54 4 66
49 45z m1054 -7 c8 -5 9 -19 3 -46 -11 -52 -23 -62 -57 -50 -37 12 -40 42 -8
77 27 28 41 32 62 19z m-825 -99 c26 -23 23 -36 -16 -57 -27 -14 -38 -16 -55
-7 -22 12 -37 53 -26 70 10 17 76 13 97 -6z m635 -5 c38 -31 -10 -81 -64 -66
-42 11 -52 42 -21 68 24 20 60 19 85 -2z m-447 -33 c16 -8 34 -24 40 -35 9
-16 5 -21 -25 -36 l-36 -17 -35 34 -35 34 22 17 c26 22 32 22 69 3z m250 -21
c0 -15 -54 -64 -71 -64 -7 0 -24 8 -37 18 l-23 18 21 19 c36 32 63 42 87 30
13 -5 23 -15 23 -21z"/>
</g>
</svg>
