<?xml version="1.0" encoding="iso-8859-1"?>
<!-- Generator: Adobe Illustrator 19.1.0, SVG Export Plug-In . SVG Version: 6.00 Build 0)  -->
<svg version="1.1" id="Capa_1" xmlns="http://www.w3.org/2000/svg" xmlns:xlink="http://www.w3.org/1999/xlink" x="0px" y="0px"
	 viewBox="0 0 476.192 476.192" style="enable-background:new 0 0 476.192 476.192;" xml:space="preserve">
<g>
	<g>
		<path d="M447.4,319.011c-2.79-6.51-9.301-11.161-16.741-12.091c-22.322-0.93-43.713-6.51-64.174-14.881
			c11.161-8.371,22.322-17.671,32.552-27.902c4.65-5.58,6.51-13.021,3.72-19.531c-2.79-6.51-9.301-11.161-16.741-12.091
			c-23.252-0.93-45.573-8.371-65.104-20.461c14.881-8.371,27.902-18.601,39.993-30.692c4.65-5.58,6.51-13.021,3.72-19.531
			c-2.79-6.51-9.301-11.161-16.741-12.091c-34.412-1.86-64.174-21.391-79.985-51.153c14.881-9.301,24.182-26.042,24.182-44.643
			C292.079,24.182,267.898,0,238.136,0s-53.944,24.182-53.944,53.944c0,18.601,9.301,35.342,24.182,44.643
			c-15.811,29.762-45.573,49.293-79.985,51.153c-7.44,0-13.951,4.65-16.741,12.091c-2.79,6.51-0.93,14.881,3.72,19.531
			c12.091,12.091,25.112,22.322,39.993,30.692c-19.531,12.091-41.853,19.531-65.104,20.461c-7.44,0-13.951,4.65-16.741,12.091
			c-2.79,7.441-0.93,14.881,3.72,19.531c10.231,10.231,20.461,19.531,32.552,27.902c-20.461,9.301-41.853,13.951-64.174,14.881
			c-7.44,0-13.951,4.65-16.741,12.091s-0.93,14.881,3.72,19.531c40.923,41.853,93.936,70.685,150.67,80.915v38.133
			c0,10.231,8.371,18.601,18.601,18.601h69.755c10.231,0,18.601-8.371,18.601-18.601v-38.133
			c56.734-11.161,109.747-39.063,150.67-80.915C448.33,333.892,450.19,325.522,447.4,319.011z M209.304,452.94v-43.713
			c10.231,0.93,20.461,1.86,30.692,1.86c10.231,0,20.461-0.93,30.692-1.86v43.713H209.304z M239.066,25.112
			c16.741,0,30.692,13.951,30.692,30.692c0,14.881-11.161,26.972-25.112,29.762c-2.79,0.93-6.51,0.93-9.301,0
			c-13.951-1.86-25.112-14.881-25.112-29.762C209.304,38.133,222.325,25.112,239.066,25.112z M237.206,94.866h0.93h0.93h0.93h0.93
			c14.881,41.853,52.083,72.545,95.796,78.125c-15.811,13.951-34.412,25.112-54.874,30.692c-2.79,0.93-4.65,1.86-7.44,1.86
			c-1.86,0-2.79,0.93-4.65,0.93c-2.79,0.93-4.65,0.93-7.441,1.86c-1.86,0-3.72,0.93-5.58,0.93c-1.86,0-4.65,0.93-6.51,0.93
			c-1.86,0-4.65,0-6.51,0c-3.72,0-6.51,0-10.231,0c-1.86,0-4.65,0-6.51,0c-1.86,0-4.65-0.93-6.51-0.93s-3.72,0-5.58-0.93
			c-2.79,0-4.65-0.93-7.44-1.86c-1.86,0-2.79-0.93-4.65-0.93c-2.79-0.93-4.65-0.93-7.44-1.86
			c-20.461-6.51-39.063-16.741-54.874-30.692C184.192,166.481,222.325,136.719,237.206,94.866z M193.493,212.984
			c0.93,0,1.86,0.93,2.79,0.93c2.79,0.93,5.58,1.86,8.371,1.86c1.86,0,3.72,0.93,6.51,0.93c2.79,0,5.58,0.93,7.44,0.93
			s3.72,0.93,5.58,0.93c3.72,0,7.44,0,10.231,0.93c0.93,0,1.86,0,2.79,0c0.93,0,1.86,0,2.79,0c3.72,0,7.44,0,10.231-0.93
			c1.86,0,3.72,0,5.58-0.93c2.79,0,5.58-0.93,7.44-0.93s4.65-0.93,6.51-0.93c2.79-0.93,5.58-1.86,8.371-1.86
			c0.93,0,1.86-0.93,2.79-0.93c25.112,24.182,56.734,38.133,91.146,42.783c-17.671,16.741-38.133,29.762-60.454,38.133
			c-1.86,0.93-3.72,1.86-5.58,1.86c-4.65,1.86-8.371,2.79-13.021,4.65c-0.93,0-1.86,0.93-3.72,0.93
			c-4.65,0.93-9.301,2.79-13.951,3.72c-0.93,0-1.86,0.93-3.72,0.93c-5.58,0.93-10.231,1.86-15.811,1.86c-0.93,0-1.86,0-2.79,0
			c-5.58,0.93-11.161,0.93-16.741,0.93c-5.58,0-11.161,0-16.741-0.93c-0.93,0-1.86,0-2.79,0c-5.58-0.93-11.161-0.93-15.811-1.86
			c-0.93,0-1.86,0-3.72-0.93c-4.65-0.93-9.301-1.86-13.951-3.72c-0.93,0-1.86-0.93-3.72-0.93c-4.65-0.93-8.371-2.79-13.021-4.65
			c-1.86-0.93-3.72-1.86-5.58-1.86c-22.322-9.301-42.783-22.322-60.454-38.133C136.759,252.047,168.381,237.166,193.493,212.984
			L193.493,212.984z M148.85,298.55c1.86,0.93,2.79,0.93,4.65,1.86c1.86,0.93,3.72,1.86,5.58,2.79
			c4.65,1.86,10.231,3.72,14.881,5.58c1.86,0.93,2.79,0.93,4.65,1.86c5.58,1.86,11.161,2.79,16.741,4.65c0.93,0,1.86,0,3.72,0.93
			c5.58,0.93,12.091,1.86,17.671,2.79c0.93,0,1.86,0,1.86,0c6.51,0.93,13.021,0.93,19.531,0.93c6.51,0,13.021,0,19.531-0.93
			c0.93,0,1.86,0,1.86,0c6.51-0.93,12.091-1.86,17.671-2.79c0.93,0,1.86,0,3.72-0.93c5.58-0.93,11.161-2.79,16.741-4.65
			c1.86-0.93,2.79-0.93,4.65-1.86c4.65-1.86,10.231-3.72,14.881-5.58c1.86-0.93,3.72-1.86,5.58-2.79c1.86-0.93,2.79-0.93,4.65-1.86
			c27.902,17.671,58.594,28.832,91.146,31.622c-39.063,37.203-88.356,61.384-141.37,68.825l-5.58,0.93
			c-5.58,0.93-11.161,0.93-16.741,1.86h-0.93c-11.161,0.93-21.391,0.93-32.552,0h-0.93c-5.58,0-11.161-0.93-16.741-1.86l-5.58-0.93
			c-53.014-8.371-101.377-31.622-141.37-68.825C90.256,326.452,121.878,316.221,148.85,298.55z"/>
		<path d="M152.57,318.081c-13.021,0-23.252,10.231-23.252,23.252c0,13.021,10.231,23.252,23.252,23.252
			c13.021,0,23.252-10.231,23.252-23.252C175.821,328.312,165.591,318.081,152.57,318.081z M152.57,354.354
			c-7.44,0-13.951-6.51-13.951-13.951s6.51-13.951,13.951-13.951c7.441,0,13.951,6.51,13.951,13.951S160.01,354.354,152.57,354.354z
			"/>
		<path d="M292.079,281.809c13.021,0,23.252-10.231,23.252-23.252c0-13.021-10.231-23.252-23.252-23.252
			c-13.021,0-23.252,10.231-23.252,23.252C268.828,271.578,279.989,281.809,292.079,281.809z M292.079,245.536
			c7.44,0,13.951,6.51,13.951,13.951c0,7.44-6.51,13.951-13.951,13.951s-13.951-6.51-13.951-13.951
			C278.128,252.047,284.639,245.536,292.079,245.536z"/>
		<path d="M222.325,194.383c13.021,0,23.252-10.231,23.252-23.252c0-13.021-10.231-23.252-23.252-23.252
			s-23.252,10.231-23.252,23.252C199.073,184.152,210.234,194.383,222.325,194.383z M222.325,158.111
			c7.44,0,13.951,6.51,13.951,13.951s-6.51,13.951-13.951,13.951s-13.951-6.51-13.951-13.951S214.884,158.111,222.325,158.111z"/>
	</g>
</g>
<g>
</g>
<g>
</g>
<g>
</g>
<g>
</g>
<g>
</g>
<g>
</g>
<g>
</g>
<g>
</g>
<g>
</g>
<g>
</g>
<g>
</g>
<g>
</g>
<g>
</g>
<g>
</g>
<g>
</g>
</svg>
