<?xml version="1.0" encoding="UTF-8"?>
<!DOCTYPE svg PUBLIC "-//W3C//DTD SVG 1.1//EN" "http://www.w3.org/Graphics/SVG/1.1/DTD/svg11.dtd">
<!-- Creator: CorelDRAW X7 -->
<svg xmlns="http://www.w3.org/2000/svg" xml:space="preserve" width="424px" height="600px" version="1.1" style="shape-rendering:geometricPrecision; text-rendering:geometricPrecision; image-rendering:optimizeQuality; fill-rule:evenodd; clip-rule:evenodd"
viewBox="0 0 424 600"
 xmlns:xlink="http://www.w3.org/1999/xlink">
 <defs>
  <style type="text/css">
   <![CDATA[
    .fil0 {fill:#989898}
   ]]>
  </style>
 </defs>
 <g id="Слой_x0020_1">
  <metadata id="CorelCorpID_0Corel-Layer"/>
  <path class="fil0" d="M302 300c0,0 -23,4 -26,5 -8,2 -16,4 -24,7 -13,6 -7,7 -20,-1 -3,-1 -20,-11 -20,-11 0,-1 17,-11 20,-12 13,-7 7,-6 20,-1 8,3 16,6 24,8 3,1 26,5 26,5zm45 64c14,-4 32,-18 34,-34 1,-4 0,-9 -1,-13 -5,-12 -18,-16 -19,-17 1,-2 13,-5 19,-17 1,-5 2,-9 1,-14 0,0 0,-1 0,-1 -4,-15 -20,-28 -34,-32 -27,-8 -46,7 -68,20 -9,5 -19,11 -28,16 -2,1 -5,3 -7,4 -3,2 -5,0 -7,-2 -15,-9 -25,-21 -29,-38l-1 0c-4,17 -14,29 -28,38 -3,2 -5,4 -8,2 -2,-1 -4,-3 -7,-4 -9,-5 -19,-11 -28,-16 -22,-13 -40,-28 -68,-20 -13,4 -30,17 -34,31 0,1 0,1 0,2 -1,5 0,9 2,14 5,12 17,15 18,17 0,0 -8,4 -11,7 -7,6 -11,14 -9,23 0,1 0,1 0,2 4,14 21,28 34,32 28,8 46,-7 68,-20 9,-5 19,-11 28,-16 3,-2 5,-3 7,-4 3,-2 5,0 7,1 5,3 9,6 13,10 8,8 13,18 16,29l1 0c4,-17 14,-30 29,-39 2,-1 4,-3 7,-1 2,1 4,2 7,4 9,5 19,11 28,16 22,13 40,28 68,20zm1 -5c-11,3 -21,3 -32,0 -13,-3 -56,-31 -70,-39 4,-4 37,-12 44,-14 8,-1 17,-2 25,-3 9,-1 19,-1 27,-2 1,0 -3,3 -3,3 -4,4 -6,9 -6,14 0,7 4,14 10,16 22,9 31,-16 16,-20l-1 4c2,2 5,2 4,7 -2,9 -17,9 -22,1 -8,-10 2,-25 15,-23 10,1 21,11 22,22 1,15 -16,29 -29,34zm-45 -113c13,-6 12,-7 29,-8 6,0 11,1 16,3 13,4 30,19 29,33 -1,11 -12,21 -22,23 -13,2 -23,-13 -15,-24 5,-7 20,-7 22,1 1,6 -2,6 -4,8l1 4c15,-5 6,-30 -16,-21 -6,3 -10,9 -10,16 0,8 4,13 9,18 -2,1 -46,-4 -52,-6 -6,-1 -40,-9 -44,-13 19,-11 44,-27 57,-34zm-220 116c-6,-1 -11,-2 -16,-3 -13,-5 -30,-19 -29,-34 1,-11 12,-20 22,-22 13,-2 23,13 15,23 -3,5 -11,7 -16,5 -3,-1 -5,-3 -6,-6 -1,-5 3,-5 4,-7l-1 -4c-14,4 -6,29 16,20 6,-2 10,-9 10,-16 0,-7 -3,-13 -9,-17 2,-1 46,4 52,5 7,2 41,10 44,14 -21,12 -62,42 -86,42zm-16 -121c5,-2 10,-3 16,-3 7,0 10,0 16,2 13,4 56,31 70,40 -3,4 -37,12 -44,13 -8,2 -17,3 -25,4 -9,1 -19,1 -27,2 0,0 3,-3 3,-3 10,-10 7,-26 -4,-31 -22,-9 -30,16 -16,21l1 -4c-1,-2 -5,-2 -4,-7 1,-3 3,-5 6,-6 5,-2 13,0 16,4 8,11 -1,26 -15,24 -10,-2 -21,-12 -22,-22 -1,-15 16,-30 29,-34zm111 39c0,0 8,-6 9,-6 6,-5 11,-10 15,-17 1,-1 6,-10 6,-10 0,0 4,11 12,19 2,3 5,5 8,8 2,2 7,4 9,6 0,0 -28,17 -29,17 -2,0 -26,-15 -30,-17zm30 73c-1,-1 -5,-12 -12,-19 -3,-3 -6,-5 -9,-8 -2,-2 -7,-5 -9,-6 0,-1 29,-17 30,-17 1,0 25,15 29,17 1,0 -8,5 -9,6 -6,5 -11,10 -15,16 -1,2 -5,11 -5,11zm-95 -53c0,0 23,-4 26,-5 8,-2 16,-5 24,-8 13,-5 8,-6 21,1 2,1 19,11 19,12 0,0 -17,10 -19,11 -13,8 -8,7 -21,1 -8,-3 -16,-5 -24,-7 -3,-1 -26,-5 -26,-5z"/>
 </g>
</svg>
