<?xml version="1.0"?>
<svg width="64" height="403" xmlns="http://www.w3.org/2000/svg" xmlns:svg="http://www.w3.org/2000/svg">
 <g>
  <title>Layer 1</title>
  <g id="svg_6"/>
  <g id="svg_7"/>
  <g id="svg_8"/>
  <g id="svg_9"/>
  <g id="svg_10"/>
  <g id="svg_11"/>
  <g id="svg_12"/>
  <g id="svg_13"/>
  <g id="svg_14"/>
  <g id="svg_15"/>
  <g id="svg_16"/>
  <g id="svg_17"/>
  <g id="svg_18"/>
  <g id="svg_19"/>
  <g id="svg_20"/>
  <path transform="rotate(-1.5 33.50000000000243,201.49999999999994) " stroke="null" id="svg_zigzag" fill="#d7b56d" d="m2.934291,402.642213c0.764595,0 1.528123,-0.275 2.113566,-0.822l54.084692,-50.715c1.15489,-1.084 1.15489,-2.878 0,-3.962l-49.812772,-46.718l52.008449,-48.769c1.149558,-1.084 1.149558,-2.867 0,-3.961l-49.63042,-46.523l52.260115,-49.002c1.160222,-1.095 1.160222,-2.871 0,-3.962l-49.815971,-46.714l52.006316,-48.767c1.165554,-1.091 1.165554,-2.87 0,-3.961l-51.349426,-48.143c-1.162355,-1.094 -3.065844,-1.094 -4.223934,0c-1.163421,1.091 -1.163421,2.867 0,3.961l49.229461,46.165l-51.965794,48.737c-1.164488,1.094 -1.164488,2.87 0,3.961c0.078912,0.074 0.171687,0.101 0.26233,0.164c0.102373,0.134 0.155692,0.29 0.292188,0.408l49.23586,46.173l-51.97006,48.736c-0.734736,0.69 -0.951212,1.643 -0.760329,2.534c-0.019195,0.738 0.256998,1.494 0.859503,2.06l49.249723,46.178l-52.003117,48.721c-1.157023,1.084 -1.157023,2.878 0,3.962c0.08531,0.076 0.181285,0.115 0.264462,0.153c0.107704,0.131 0.16209,0.295 0.298587,0.405l49.228395,46.174l-51.968993,48.727c-1.167687,1.094 -1.167687,2.872 0,3.961c0.568381,0.573 1.332976,0.839 2.107168,0.839z"/>
 </g>

</svg>