<?xml version="1.0" encoding="utf-8"?>
<!-- Generated by IcoMoon.io -->
<!DOCTYPE svg PUBLIC "-//W3C//DTD SVG 1.1//EN" "http://www.w3.org/Graphics/SVG/1.1/DTD/svg11.dtd">
<svg version="1.1" xmlns="http://www.w3.org/2000/svg" xmlns:xlink="http://www.w3.org/1999/xlink" width="64" height="64" viewBox="0 0 64 64">
<path fill="#d7b56d" d="M32 63.999c-17.646 0-32-14.354-32-31.997 0-17.644 14.354-32 32-32s32 14.354 32 32-14.357 31.997-32 31.997zM32 2.171c-16.448 0-29.83 13.382-29.83 29.83s13.382 29.83 29.83 29.83 29.83-13.382 29.83-29.83-13.382-29.83-29.83-29.83z"></path>
<path fill="#d7b56d" d="M45.476 33.085h-26.951c-0.599 0-1.085-0.486-1.085-1.085s0.486-1.085 1.085-1.085h26.949c0.599 0 1.085 0.486 1.085 1.085s-0.485 1.085-1.084 1.085z"></path>
<path fill="#d7b56d" d="M32 46.56c-0.599 0-1.085-0.486-1.085-1.085v-26.948c0-0.599 0.486-1.085 1.085-1.085s1.085 0.486 1.085 1.085v26.947c0 0.6-0.486 1.087-1.085 1.087z"></path>
</svg>
