<?xml version="1.0" encoding="utf-8"?>
<!-- Generated by IcoMoon.io -->
<!DOCTYPE svg PUBLIC "-//W3C//DTD SVG 1.1//EN" "http://www.w3.org/Graphics/SVG/1.1/DTD/svg11.dtd">
<svg version="1.1" xmlns="http://www.w3.org/2000/svg" xmlns:xlink="http://www.w3.org/1999/xlink" width="64" height="64" viewBox="0 0 64 64">
<path fill="#000" d="M32 23.512c3.467 0 6.287-2.82 6.287-6.287s-2.821-6.287-6.287-6.287-6.287 2.82-6.287 6.287 2.82 6.287 6.287 6.287zM32 12.98c2.34 0 4.245 1.904 4.245 4.245s-1.904 4.245-4.245 4.245c-2.34 0-4.245-1.904-4.245-4.245s1.904-4.245 4.245-4.245z"></path>
<path fill="#000" d="M62.25 12.569c0-1.563-0.74-2.957-1.889-3.849 1.149-0.892 1.889-2.285 1.889-3.849 0-2.685-2.185-4.87-4.87-4.87-3.756 0-12.791 1.19-15.571 12.209l-3.838 15.212c-1.71-1.178-3.772-1.865-5.969-1.865s-4.26 0.687-5.97 1.865l-3.838-15.211c-2.781-11.019-11.816-12.209-15.571-12.209-2.686 0-4.871 2.185-4.871 4.87 0 1.564 0.74 2.957 1.889 3.849-1.149 0.892-1.889 2.286-1.889 3.849s0.741 2.957 1.889 3.849c-1.149 0.892-1.889 2.285-1.889 3.849s0.741 2.957 1.889 3.849c-1.149 0.892-1.889 2.286-1.889 3.849 0 2.686 2.185 4.87 4.87 4.87h6.057c0.469 4.225 3.816 7.592 8.029 8.099l-1.488 11.087c-0.062 0.466 0.155 0.838 0.502 1.147l-0.925 6.899c-0.032 0.241-0.002 0.605 0.323 0.976 0.904 1.031 5.609 2.958 12.879 2.958 7.866 0 12.529-2.81 12.724-2.929 0.088-0.054 0.166-0.12 0.234-0.198 0.305-0.349 0.283-0.517 0.158-1.447l-0.854-6.377c0.018-0.011 0.033-0.020 0.040-0.024 0.088-0.054 0.166-0.12 0.234-0.198 0.305-0.349 0.259-0.696 0.218-1.002l-1.459-10.891c4.213-0.507 7.559-3.874 8.028-8.099h6.057c2.686 0 4.87-2.185 4.87-4.87 0-1.564-0.74-2.957-1.889-3.849 1.149-0.892 1.889-2.285 1.889-3.849s-0.74-2.957-1.889-3.849c1.149-0.892 1.889-2.285 1.889-3.849zM57.379 23.094h-5.661c-0.564 0-1.021 0.457-1.021 1.021s0.457 1.021 1.021 1.021h5.661c1.559 0 2.828 1.269 2.828 2.828s-1.268 2.828-2.828 2.828h-7.022c-0.564 0-1.021 0.457-1.021 1.021 0 3.659-2.764 6.682-6.313 7.096l-0.565-4.218c-0.168-1.248-0.556-2.421-1.118-3.486 0.212-0.407 0.129-0.92-0.231-1.237-0.207-0.183-0.468-0.265-0.724-0.253-0.215-0.28-0.443-0.55-0.684-0.807l4.088-16.201c2.342-9.281 9.52-10.666 13.591-10.666 1.559 0 2.828 1.269 2.828 2.828s-1.268 2.828-2.828 2.828h-2.937c-0.564 0-1.021 0.457-1.021 1.021s0.457 1.021 1.021 1.021h2.937c1.559 0 2.828 1.269 2.828 2.828s-1.268 2.828-2.828 2.828h-4.298c-0.564 0-1.021 0.457-1.021 1.021s0.457 1.021 1.021 1.021h4.298c1.559 0 2.828 1.269 2.828 2.828s-1.269 2.828-2.828 2.828zM32 53.816c-1.109 0-2.215-0.051-3.286-0.153-0.556-0.052-1.050 0.352-1.111 0.906-0.001 0.005-0.002 0.010-0.002 0.015-0.053 0.562 0.359 1.060 0.921 1.113 1.135 0.107 2.306 0.162 3.479 0.162 4.747 0 8.289-1.059 10.325-1.883 0.368 2.746 0.629 4.69 0.758 5.658-1.407 0.692-5.339 2.325-11.083 2.325-6.105 0-10.048-1.466-11.113-2.102l0.758-5.655c0.651 0.254 1.541 0.548 2.703 0.823 0.549 0.13 1.099-0.21 1.229-0.758 0.002-0.007 0.002-0.013 0.004-0.020 0.117-0.542-0.22-1.081-0.762-1.209-1.773-0.42-2.926-0.908-3.455-1.205-0.017-0.011-0.035-0.022-0.053-0.032 0.799-5.965 2.211-16.492 2.257-16.818 0.001-0.006 0.002-0.011 0.002-0.017 0.104-0.777 0.314-1.519 0.613-2.212 2.184 1.809 4.945 2.819 7.817 2.819s5.635-1.011 7.819-2.82c0.299 0.693 0.51 1.435 0.614 2.213 0.020 0.151 1.797 13.406 2.228 16.625-1.366 0.672-5.122 2.227-10.661 2.227zM13.643 30.793h-7.022c-1.559 0-2.828-1.268-2.828-2.828s1.269-2.828 2.828-2.828h5.66c0.564 0 1.021-0.457 1.021-1.021s-0.457-1.021-1.021-1.021h-5.66c-1.559 0-2.828-1.269-2.828-2.828s1.269-2.828 2.828-2.828h4.298c0.564 0 1.021-0.457 1.021-1.021s-0.457-1.021-1.021-1.021h-4.298c-1.559 0-2.828-1.269-2.828-2.828s1.269-2.828 2.828-2.828h2.936c0.564 0 1.021-0.457 1.021-1.021s-0.457-1.021-1.021-1.021h-2.937c-1.559 0-2.828-1.269-2.828-2.828s1.268-2.828 2.828-2.828c4.071 0 11.249 1.386 13.591 10.666l4.088 16.201c-0.241 0.257-0.469 0.526-0.683 0.807-0.256-0.012-0.517 0.070-0.724 0.253-0.36 0.317-0.442 0.831-0.23 1.238-0.561 1.064-0.949 2.238-1.116 3.485l0.008 0.001c-0.014 0.060-0.025 0.124-0.034 0.192l-0.54 4.024c-3.55-0.413-6.315-3.437-6.315-7.096 0-0.564-0.457-1.021-1.021-1.021zM38.766 30.959c-1.857 1.643-4.26 2.569-6.766 2.569s-4.909-0.925-6.766-2.568c1.567-2.051 4.038-3.362 6.766-3.362s5.198 1.311 6.766 3.362z"></path>
<path fill="#000" d="M28.406 8.895h7.188c0.564 0 1.021-0.457 1.021-1.021s-0.457-1.021-1.021-1.021h-7.188c-0.564 0-1.021 0.457-1.021 1.021s0.457 1.021 1.021 1.021z"></path>
</svg>
