<?xml version="1.0" encoding="utf-8"?>
<!-- Generated by IcoMoon.io -->
<!DOCTYPE svg PUBLIC "-//W3C//DTD SVG 1.1//EN" "http://www.w3.org/Graphics/SVG/1.1/DTD/svg11.dtd">
<svg version="1.1" xmlns="http://www.w3.org/2000/svg" xmlns:xlink="http://www.w3.org/1999/xlink" width="64" height="64" viewBox="0 0 64 64">
<path fill="#475993" d="M55.376 0h-46.751c-4.763 0-8.624 3.861-8.624 8.624v46.751c0 4.763 3.861 8.624 8.624 8.624h23.057l0.039-22.87h-5.942c-0.772 0-1.399-0.624-1.402-1.397l-0.029-7.372c-0.003-0.776 0.626-1.407 1.402-1.407h5.931v-7.123c0-8.266 5.049-12.768 12.423-12.768h6.051c0.774 0 1.402 0.628 1.402 1.402v6.216c0 0.774-0.627 1.401-1.401 1.402l-3.713 0.002c-4.010 0-4.787 1.906-4.787 4.702v6.167h8.812c0.84 0 1.491 0.733 1.392 1.567l-0.874 7.372c-0.084 0.705-0.682 1.237-1.392 1.237h-7.899l-0.039 22.87h13.72c4.763 0 8.624-3.861 8.624-8.624v-46.752c-0-4.763-3.861-8.624-8.624-8.624z"></path>
</svg>
