<?xml version="1.0" encoding="utf-8"?>
<!-- Generated by IcoMoon.io -->
<!DOCTYPE svg PUBLIC "-//W3C//DTD SVG 1.1//EN" "http://www.w3.org/Graphics/SVG/1.1/DTD/svg11.dtd">
<svg version="1.1" xmlns="http://www.w3.org/2000/svg" xmlns:xlink="http://www.w3.org/1999/xlink" width="64" height="64" viewBox="0 0 64 64">
<path fill="#bf392c" d="M53.24 4.051c-1.236-2.538-3.809-4.051-6.875-4.051-6.987 0-11.942 7.549-14.374 12.312-2.438-4.759-7.385-12.264-14.358-12.264-4.423 0-7.631 3.151-7.631 7.425 0 7.579 7.229 12.524 21.761 12.524s22.231-6.355 22.231-12.462c-0.002-1.212-0.224-2.402-0.754-3.484zM18.866 11.574c-2.116-1.264-2.869-2.68-2.869-3.587 0-1.16 1.234-2 2.933-2 4.095 0 9.335 6.727 11.096 10.018-4.719-0.352-9.548-3.467-11.16-4.431zM47.711 9.065c-1.062 2.144-6.677 6.415-13.692 6.939 1.77-3.291 7.019-10.018 11.050-10.018 1.56 0 2.456 0.676 2.767 1.308 0.248 0.504 0.206 1.102-0.126 1.772z"></path>
<path fill="#efc75e" d="M63.995 20.007h-63.99v16.001h2v27.992h59.991v-27.991h2c-0 0-0-16.002-0-16.002z"></path>
<path fill="#d7b354" d="M2.005 36.006h59.991v3.999h-59.991v-3.999z"></path>
<path fill="#bf392c" d="M28 20.007h7.999v43.993h-7.999c0 0 0-43.993 0-43.993z"></path>
<path fill="#ac3327" d="M28 36.006h7.999v3.999h-7.999v-3.999z"></path>
</svg>
