<?xml version="1.0" encoding="utf-8"?>
<!-- Generated by IcoMoon.io -->
<!DOCTYPE svg PUBLIC "-//W3C//DTD SVG 1.1//EN" "http://www.w3.org/Graphics/SVG/1.1/DTD/svg11.dtd">
<svg version="1.1" xmlns="http://www.w3.org/2000/svg" xmlns:xlink="http://www.w3.org/1999/xlink" width="64" height="64" viewBox="0 0 64 64">
<path fill="#000" d="M44.934 0h-25.868c-10.513 0-19.066 8.553-19.066 19.066v25.868c0 10.513 8.553 19.066 19.066 19.066h25.868c10.513 0 19.066-8.553 19.066-19.066v-25.868c-0-10.513-8.553-19.066-19.066-19.066zM57.562 44.934c0 6.974-5.654 12.628-12.628 12.628h-25.868c-6.974 0-12.628-5.654-12.628-12.628v-25.868c0-6.974 5.654-12.628 12.628-12.628h25.868c6.974 0 12.628 5.654 12.628 12.628v25.868z"></path>
<path fill="#000" d="M32 15.447c-9.127 0-16.553 7.426-16.553 16.553s7.425 16.553 16.553 16.553 16.553-7.425 16.553-16.553-7.425-16.553-16.553-16.553zM32 42.114c-5.586 0-10.114-4.528-10.114-10.114s4.528-10.114 10.114-10.114c5.586 0 10.114 4.528 10.114 10.114s-4.528 10.114-10.114 10.114z"></path>
<path fill="#000" d="M52.55 15.572c0 2.191-1.776 3.966-3.966 3.966s-3.966-1.776-3.966-3.966c0-2.191 1.776-3.966 3.966-3.966s3.966 1.776 3.966 3.966z"></path>
</svg>
