<?xml version="1.0" encoding="utf-8"?>
<!-- Generated by IcoMoon.io -->
<!DOCTYPE svg PUBLIC "-//W3C//DTD SVG 1.1//EN" "http://www.w3.org/Graphics/SVG/1.1/DTD/svg11.dtd">
<svg version="1.1" xmlns="http://www.w3.org/2000/svg" xmlns:xlink="http://www.w3.org/1999/xlink" width="64" height="64" viewBox="0 0 64 64">
<path fill="#8c8d8e" d="M64 48c0 1.403-0.395 2.704-1.027 3.848l-20.207-22.609 19.988-17.488c0.778 1.234 1.246 2.683 1.246 4.25v31.999zM32 33.344l27.813-24.336c-1.141-0.625-2.427-1.008-3.813-1.008h-48c-1.388 0-2.674 0.383-3.811 1.008l27.811 24.336zM39.754 31.871l-6.438 5.637c-0.377 0.328-0.846 0.492-1.316 0.492s-0.94-0.164-1.316-0.492l-6.439-5.637-20.463 22.898c1.227 0.77 2.664 1.23 4.219 1.23h48c1.554 0 2.992-0.461 4.219-1.23l-20.465-22.898zM1.246 11.75c-0.777 1.234-1.246 2.683-1.246 4.25v32c0 1.403 0.393 2.704 1.027 3.848l20.205-22.613-19.986-17.484z"></path>
</svg>
