<?xml version="1.0" encoding="utf-8"?>
<!-- Generated by IcoMoon.io -->
<!DOCTYPE svg PUBLIC "-//W3C//DTD SVG 1.1//EN" "http://www.w3.org/Graphics/SVG/1.1/DTD/svg11.dtd">
<svg version="1.1" xmlns="http://www.w3.org/2000/svg" xmlns:xlink="http://www.w3.org/1999/xlink" width="64" height="64" viewBox="0 0 64 64">
<path fill="#000" d="M35.233 28.98c0.699-0.43 1.42-0.85 2.139-1.272 0.725-0.413 1.449-0.828 2.172-1.219 0.359-0.198 0.718-0.392 1.075-0.579 0.355-0.188 0.707-0.376 1.056-0.552 1.392-0.718 2.714-1.349 3.862-1.863 1.148-0.515 2.123-0.912 2.815-1.175 0.344-0.134 0.622-0.227 0.807-0.295 0.189-0.065 0.289-0.098 0.289-0.098s-0.081 0.069-0.23 0.201c-0.152 0.127-0.372 0.32-0.66 0.552-0.573 0.467-1.404 1.113-2.424 1.85s-2.227 1.565-3.544 2.412c-0.328 0.215-0.665 0.425-1.007 0.639-0.341 0.216-0.687 0.43-1.039 0.641-0.7 0.431-1.421 0.85-2.141 1.271-0.725 0.413-1.449 0.827-2.172 1.218-0.079 0.044-0.158 0.084-0.237 0.127 3.875 0.68 14.372 2.114 19.931-1.096 12.616-7.284 5.705-8.466 2.942-13.252s-0.333-11.363-12.949-4.078c-5.558 3.21-9.565 13.017-10.914 16.713 0.077-0.047 0.151-0.095 0.229-0.142z"></path>
<path fill="#000" d="M36.231 33.29c0.723 0.39 1.447 0.805 2.172 1.218 0.72 0.422 1.441 0.84 2.142 1.271 0.352 0.212 0.698 0.426 1.039 0.641 0.341 0.214 0.679 0.424 1.006 0.639 1.318 0.847 2.526 1.675 3.545 2.412 1.020 0.737 1.851 1.383 2.424 1.85 0.288 0.231 0.508 0.425 0.66 0.551 0.15 0.132 0.23 0.201 0.23 0.201s-0.101-0.034-0.289-0.099c-0.186-0.068-0.464-0.161-0.807-0.295-0.691-0.263-1.667-0.659-2.815-1.175-1.148-0.514-2.469-1.146-3.861-1.863-0.35-0.176-0.701-0.364-1.056-0.552-0.357-0.187-0.716-0.38-1.075-0.579-0.722-0.391-1.446-0.806-2.172-1.219-0.72-0.422-1.441-0.842-2.139-1.272-0.078-0.047-0.152-0.095-0.229-0.142 1.349 3.697 5.356 13.503 10.915 16.713 12.617 7.283 10.185 0.708 12.949-4.078s9.674-5.969-2.942-13.252c-5.559-3.21-16.056-1.776-19.931-1.097 0.079 0.044 0.158 0.084 0.237 0.128z"></path>
<path fill="#000" d="M32.999 36.309c0.023 0.821 0.026 1.656 0.032 2.49-0.005 0.834-0.007 1.668-0.031 2.49-0.007 0.41-0.019 0.818-0.036 1.221-0.014 0.402-0.028 0.8-0.050 1.191-0.076 1.564-0.188 3.024-0.317 4.276s-0.273 2.294-0.391 3.025c-0.056 0.364-0.115 0.651-0.148 0.847-0.039 0.195-0.060 0.3-0.060 0.3s-0.020-0.105-0.060-0.3c-0.033-0.196-0.091-0.483-0.148-0.847-0.117-0.73-0.262-1.773-0.391-3.025s-0.241-2.712-0.317-4.275c-0.022-0.391-0.035-0.789-0.050-1.191-0.017-0.403-0.029-0.81-0.036-1.221-0.024-0.822-0.025-1.656-0.031-2.49 0.006-0.834 0.009-1.669 0.032-2.49 0.002-0.090 0.006-0.178 0.009-0.269-2.526 3.016-9.016 11.39-9.016 17.809 0 14.568 4.48 9.174 10.006 9.175s10.006 5.393 10.006-9.175c0-6.419-6.489-14.793-9.016-17.809 0.004 0.090 0.007 0.178 0.009 0.269z"></path>
<path fill="#000" d="M28.767 35.020c-0.699 0.43-1.42 0.85-2.139 1.272-0.725 0.413-1.449 0.828-2.172 1.219-0.359 0.199-0.718 0.392-1.075 0.579-0.355 0.187-0.707 0.376-1.056 0.552-1.392 0.717-2.714 1.349-3.862 1.863-1.148 0.515-2.123 0.912-2.815 1.175-0.344 0.134-0.622 0.227-0.808 0.295-0.189 0.065-0.289 0.099-0.289 0.099s0.080-0.070 0.23-0.201c0.152-0.127 0.372-0.32 0.66-0.552 0.573-0.467 1.405-1.113 2.424-1.85s2.227-1.566 3.544-2.412c0.328-0.215 0.666-0.425 1.007-0.639 0.341-0.215 0.687-0.43 1.039-0.641 0.7-0.431 1.421-0.849 2.142-1.271 0.725-0.413 1.449-0.827 2.172-1.218 0.079-0.044 0.158-0.083 0.237-0.127-3.875-0.679-14.372-2.113-19.931 1.097-12.616 7.284-5.705 8.466-2.942 13.252s0.332 11.362 12.948 4.079c5.559-3.21 9.566-13.017 10.915-16.713-0.077 0.047-0.151 0.095-0.229 0.142z"></path>
<path fill="#000" d="M27.769 30.71c-0.723-0.391-1.447-0.805-2.172-1.218-0.72-0.422-1.441-0.84-2.142-1.271-0.352-0.212-0.698-0.426-1.039-0.641-0.341-0.214-0.679-0.424-1.007-0.639-1.317-0.847-2.526-1.675-3.545-2.412s-1.851-1.383-2.424-1.85c-0.288-0.231-0.508-0.425-0.66-0.551-0.149-0.132-0.23-0.201-0.23-0.201s0.101 0.034 0.289 0.099c0.186 0.068 0.464 0.161 0.807 0.295 0.691 0.263 1.667 0.66 2.815 1.175 1.148 0.514 2.469 1.145 3.861 1.863 0.349 0.176 0.701 0.365 1.056 0.552 0.357 0.187 0.716 0.381 1.075 0.579 0.722 0.391 1.446 0.806 2.172 1.219 0.72 0.422 1.441 0.842 2.139 1.272 0.078 0.047 0.152 0.095 0.229 0.142-1.349-3.696-5.356-13.503-10.915-16.713-12.616-7.284-10.185-0.707-12.948 4.079s-9.674 5.969 2.942 13.252c5.559 3.21 16.056 1.776 19.931 1.097-0.079-0.044-0.158-0.084-0.237-0.128z"></path>
<path fill="#000" d="M31.001 27.691c-0.023-0.821-0.026-1.655-0.032-2.49 0.006-0.834 0.007-1.668 0.031-2.49 0.007-0.41 0.019-0.818 0.036-1.221 0.014-0.402 0.028-0.8 0.049-1.191 0.076-1.564 0.188-3.024 0.317-4.275s0.273-2.295 0.391-3.025c0.056-0.365 0.115-0.651 0.148-0.847 0.039-0.195 0.060-0.3 0.060-0.3s0.020 0.104 0.060 0.3c0.033 0.196 0.092 0.483 0.148 0.847 0.117 0.73 0.262 1.773 0.391 3.025s0.241 2.711 0.317 4.275c0.022 0.391 0.035 0.789 0.050 1.191 0.017 0.403 0.029 0.81 0.036 1.221 0.024 0.822 0.025 1.655 0.031 2.49-0.006 0.835-0.010 1.669-0.032 2.49-0.002 0.091-0.006 0.179-0.009 0.269 2.526-3.016 9.016-11.39 9.016-17.809 0-14.568-4.48-9.174-10.006-9.174s-10.006-5.393-10.006 9.174c0 6.419 6.489 14.793 9.016 17.809-0.004-0.090-0.007-0.178-0.009-0.269z"></path>
</svg>
