<?xml version="1.0" encoding="utf-8"?>
<!-- Generated by IcoMoon.io -->
<!DOCTYPE svg PUBLIC "-//W3C//DTD SVG 1.1//EN" "http://www.w3.org/Graphics/SVG/1.1/DTD/svg11.dtd">
<svg version="1.1" xmlns="http://www.w3.org/2000/svg" xmlns:xlink="http://www.w3.org/1999/xlink" width="64" height="64" viewBox="0 0 64 64">
<path fill="#d7b56d" d="M27.745 39.441c-0.405-0.287-1.123-0.313-2.155-0.078l-1.541 0.34 0.823 3.683 1.541-0.34c0.535-0.118 0.979-0.287 1.319-0.483s0.575-0.457 0.692-0.77c0.131-0.313 0.144-0.692 0.052-1.136-0.118-0.548-0.353-0.953-0.731-1.215z"></path>
<path fill="#d7b56d" d="M17.493 43.124c-0.418-0.588-0.901-0.992-1.476-1.215s-1.175-0.261-1.815-0.118c-0.457 0.105-0.862 0.287-1.214 0.562s-0.627 0.614-0.823 1.019c-0.196 0.418-0.326 0.914-0.366 1.489-0.039 0.588 0.013 1.215 0.17 1.894s0.366 1.293 0.653 1.802c0.287 0.522 0.614 0.927 0.992 1.228s0.784 0.496 1.201 0.588 0.862 0.091 1.319-0.013c0.588-0.131 1.084-0.405 1.515-0.823 0.418-0.418 0.705-0.992 0.849-1.711s0.118-1.554-0.105-2.507c-0.183-0.875-0.483-1.606-0.901-2.194z"></path>
<path fill="#d7b56d" d="M62.626 46.833l-4.989-21.521c-0.666-2.86-3.539-4.662-6.399-3.996l-6.934 1.606-13.503-12.68c0.679-1.41 0.914-3.069 0.522-4.714-0.888-3.839-4.727-6.229-8.567-5.341s-6.229 4.727-5.341 8.567c0.379 1.645 1.306 3.030 2.546 3.996l-5.367 14.234 5.015-1.162 4.362-11.557c0.666 0.039 1.332-0.013 2.011-0.17s1.306-0.405 1.881-0.731l11.401 10.722-33.888 7.862c-2.86 0.666-4.662 3.539-3.996 6.399l4.989 21.521c0.666 2.86 3.539 4.662 6.399 3.996l45.851-10.63c2.873-0.666 4.662-3.552 4.009-6.399zM25.094 10.241c-1.711 0.392-3.435-0.666-3.826-2.39-0.392-1.711 0.666-3.435 2.39-3.826 1.711-0.392 3.435 0.666 3.826 2.39 0.405 1.724-0.666 3.435-2.39 3.826zM20.941 47.446c-0.065 0.81-0.274 1.554-0.627 2.22s-0.836 1.228-1.463 1.672-1.384 0.77-2.272 0.966c-0.888 0.196-1.711 0.222-2.481 0.078s-1.45-0.444-2.037-0.901c-0.588-0.444-1.097-1.032-1.502-1.763-0.418-0.731-0.718-1.541-0.914-2.442-0.209-0.927-0.274-1.802-0.196-2.638 0.078-0.823 0.287-1.567 0.64-2.22s0.836-1.188 1.45-1.632 1.358-0.757 2.22-0.953c1.175-0.261 2.233-0.235 3.186 0.091s1.75 0.901 2.39 1.737c0.64 0.836 1.097 1.894 1.384 3.147 0.222 0.94 0.3 1.815 0.222 2.638zM30.343 43.098c-0.575 0.797-1.554 1.345-2.964 1.658l-2.102 0.47 0.757 3.408c0.105 0.483 0.078 0.888-0.078 1.188s-0.405 0.483-0.731 0.562c-0.34 0.078-0.653 0.013-0.914-0.183s-0.457-0.548-0.562-1.032l-2.063-9.285c-0.118-0.535-0.091-0.94 0.091-1.228s0.522-0.483 1.032-0.588l2.938-0.653c0.875-0.196 1.554-0.274 2.050-0.235s0.94 0.17 1.345 0.418c0.405 0.248 0.744 0.575 1.032 0.992 0.274 0.418 0.483 0.914 0.614 1.502 0.274 1.201 0.131 2.22-0.444 3.004zM42.972 45.931c-0.144 0.222-0.392 0.366-0.757 0.444l-6.229 1.384c-0.496 0.118-0.888 0.078-1.149-0.118-0.274-0.183-0.47-0.548-0.588-1.071l-2.011-9.063c-0.078-0.353-0.091-0.653-0.039-0.888 0.052-0.248 0.17-0.444 0.353-0.588s0.444-0.261 0.77-0.327l6.046-1.345c0.366-0.078 0.653-0.052 0.875 0.078s0.353 0.34 0.418 0.614c0.065 0.287 0.026 0.535-0.118 0.744s-0.392 0.353-0.757 0.444l-5.158 1.149 0.653 2.964 4.754-1.058c0.353-0.078 0.627-0.052 0.836 0.078s0.34 0.327 0.405 0.601 0.026 0.522-0.105 0.731-0.379 0.353-0.731 0.431l-4.754 1.058 0.757 3.435 5.341-1.188c0.366-0.078 0.653-0.052 0.875 0.091s0.366 0.353 0.431 0.653c0.065 0.274 0.026 0.535-0.118 0.744zM53.432 44.103c-0.209 0.052-0.392 0.052-0.575 0.026s-0.353-0.091-0.535-0.196c-0.17-0.105-0.34-0.235-0.509-0.392s-0.327-0.313-0.496-0.483l-5.864-6.059 1.567 7.065c0.105 0.457 0.078 0.836-0.065 1.11s-0.379 0.457-0.692 0.522c-0.327 0.078-0.614 0.013-0.862-0.183s-0.418-0.522-0.522-0.979l-2.063-9.298c-0.091-0.392-0.118-0.718-0.078-0.953 0.039-0.274 0.157-0.509 0.353-0.718s0.418-0.34 0.679-0.392c0.209-0.052 0.392-0.052 0.548-0.013s0.313 0.105 0.444 0.196c0.144 0.091 0.287 0.222 0.444 0.392s0.327 0.34 0.496 0.522l5.981 6.125-1.593-7.169c-0.105-0.47-0.091-0.836 0.052-1.11 0.131-0.274 0.366-0.444 0.679-0.522 0.327-0.078 0.614-0.013 0.862 0.17 0.248 0.196 0.418 0.522 0.522 0.979l2.116 9.481c0.222 1.084-0.065 1.698-0.888 1.88z"></path>
</svg>
