<?xml version="1.0" encoding="utf-8"?>
<!-- Generated by IcoMoon.io -->
<!DOCTYPE svg PUBLIC "-//W3C//DTD SVG 1.1//EN" "http://www.w3.org/Graphics/SVG/1.1/DTD/svg11.dtd">
<svg version="1.1" xmlns="http://www.w3.org/2000/svg" xmlns:xlink="http://www.w3.org/1999/xlink" width="64" height="64" viewBox="0 0 64 64">
<path fill="#ff5023" d="M25 42.603l-3.604-3.604 10.603-10.603v-28.396l-5.286 5.424-6.96-2.989-2.808 7.034-7.574-0.098 0.098 7.574-7.034 2.808 2.989 6.96-5.424 5.286 5.424 5.286-2.989 6.96 7.034 2.808-0.098 7.574 7.574-0.098 2.808 7.034 6.96-2.989 5.286 5.424v-28.396l-7 6.999zM18.518 24.888c0-3.513 2.858-6.37 6.37-6.37s6.37 2.858 6.37 6.37-2.858 6.37-6.37 6.37-6.37-2.858-6.37-6.37z"></path>
<path fill="#ff5023" d="M26.163 24.888c0-0.703-0.572-1.274-1.274-1.274s-1.274 0.572-1.274 1.274 0.572 1.274 1.274 1.274 1.274-0.572 1.274-1.274z"></path>
<path fill="#ff3501" d="M58.575 37.286l5.424-5.286-5.424-5.286 2.989-6.96-7.035-2.808 0.098-7.574-7.573 0.098-2.808-7.034-6.96 2.989-5.286-5.424v28.396l6.999-6.999 3.604 3.604-10.603 10.603v28.396l5.286-5.424 6.96 2.989 2.808-7.034 7.573 0.098-0.098-7.574 7.035-2.808-2.989-6.96zM39.111 45.482c-3.513 0-6.37-2.858-6.37-6.37s2.858-6.37 6.37-6.37 6.37 2.858 6.37 6.37-2.858 6.37-6.37 6.37z"></path>
<path fill="#ff3501" d="M39.111 37.837c-0.703 0-1.274 0.572-1.274 1.274s0.572 1.274 1.274 1.274 1.274-0.572 1.274-1.274-0.572-1.274-1.274-1.274z"></path>
<path fill="#ffda44" d="M31.259 24.888c0-3.513-2.858-6.37-6.37-6.37s-6.37 2.858-6.37 6.37 2.858 6.37 6.37 6.37 6.37-2.858 6.37-6.37zM23.614 24.888c0-0.703 0.572-1.274 1.274-1.274s1.274 0.572 1.274 1.274-0.572 1.274-1.274 1.274-1.274-0.572-1.274-1.274z"></path>
<path fill="#ffda44" d="M39.111 32.741c-3.513 0-6.37 2.858-6.37 6.37s2.858 6.37 6.37 6.37 6.37-2.858 6.37-6.37-2.858-6.37-6.37-6.37zM39.111 40.386c-0.703 0-1.274-0.572-1.274-1.274s0.572-1.274 1.274-1.274 1.274 0.572 1.274 1.274-0.572 1.274-1.274 1.274z"></path>
<path fill="#ffda44" d="M25 42.603l17.603-17.603-3.604-3.604-17.603 17.603z"></path>
</svg>
