<?xml version="1.0" encoding="utf-8"?>
<!-- Generated by IcoMoon.io -->
<!DOCTYPE svg PUBLIC "-//W3C//DTD SVG 1.1//EN" "http://www.w3.org/Graphics/SVG/1.1/DTD/svg11.dtd">
<svg version="1.1" xmlns="http://www.w3.org/2000/svg" xmlns:xlink="http://www.w3.org/1999/xlink" width="64" height="64" viewBox="0 0 64 64">
<path fill="#b29241" d="M32 0v13.74c5.805 0 10.529 4.722 10.529 10.528 0 5.805-4.723 10.528-10.529 10.528v29.203l19.271-24.229c3.46-4.376 5.289-9.635 5.289-15.211 0-13.542-11.018-24.56-24.56-24.56z"></path>
<path fill="#d8d7da" d="M42.529 24.268c0-5.806-4.723-10.528-10.529-10.528v21.057c5.805 0 10.529-4.723 10.529-10.529z"></path>
<path fill="#ffdf90" d="M21.471 24.268c0-5.806 4.723-10.528 10.529-10.528v-13.74c-13.542 0-24.56 11.018-24.56 24.56 0 5.576 1.829 10.835 5.294 15.216l19.266 24.223v-29.203c-5.805 0-10.529-4.723-10.529-10.529z"></path>
<path fill="#fff" d="M21.471 24.268c0 5.805 4.723 10.528 10.529 10.528v-21.057c-5.805 0-10.529 4.722-10.529 10.528z"></path>
</svg>
