<?xml version="1.0" encoding="utf-8"?>
<!-- Generated by IcoMoon.io -->
<!DOCTYPE svg PUBLIC "-//W3C//DTD SVG 1.1//EN" "http://www.w3.org/Graphics/SVG/1.1/DTD/svg11.dtd">
<svg version="1.1" xmlns="http://www.w3.org/2000/svg" xmlns:xlink="http://www.w3.org/1999/xlink" width="64" height="64" viewBox="0 0 64 64">
<path fill="#000" d="M61.466 17.797c-0.506-4.652-0.506-15.269-6.168-17.393-0.202-0.303-0.708-0.405-1.011-0.303-0.506-0.101-1.011-0.101-1.517-0.101-3.944 0.202-7.786 4.146-10.213 6.876-3.135 3.438-5.461 7.382-7.079 11.831-0.404-0.202-0.91-0.303-1.517-0.202-2.022 0.101-4.045 0.303-6.067 0.506-3.135-6.977-8.899-15.472-17.191-16.685-7.281-1.011-8.090 9.404-8.595 14.562-0.809 6.977-1.315 19.416 6.876 22.753 1.517 0.607 3.034 0.708 4.55 0.404-1.416 3.944-1.921 7.888-2.022 12.135 0 3.236-0.405 7.382 0.91 10.415 0.101 0.202 0.506 0.404 0.708 0.404 0.809 0 0.91-0.303 1.618-0.607 0.809-0.607 1.618-1.213 2.427-1.82 1.82 0.202 3.64 0.303 5.461 0.506 1.517 0.506 3.438 2.022 4.854 2.831 0.607 0.304 1.213-0.202 1.112-0.809-2.225-11.123-1.416-21.337 2.225-31.854 3.64 8.292 5.663 16.483 4.652 25.685-0.101 0.809 0.91 1.011 1.416 0.607 2.225-2.022 4.449-4.045 6.472-6.27v0c2.933 1.517 5.764 3.034 8.494 4.854 0.506 0.404 1.315-0.101 1.315-0.809-0.303-5.764-1.921-11.123-4.854-16.078 2.225 0.809 4.55 1.112 6.876 0.708 9.708-1.618 6.877-15.573 6.27-22.146zM46.601 5.359c1.315-1.112 3.438-3.034 5.258-3.337 0.607-0.101 1.213-0.101 1.618-0.101-0.708 4.652-2.933 8.393-6.775 11.326-3.034 2.326-6.674 3.539-10.112 5.157 2.629-4.854 5.764-9.404 10.011-13.045zM11.107 3.64c1.315 0.101 2.933 0.91 4.045 1.517 5.562 3.034 8.292 8.697 11.629 13.753-7.888-0.708-19.213-3.742-20.831-12.337 0.708-1.921 1.719-3.135 5.157-2.933zM9.893 37.82c-7.18-3.135-6.977-13.247-6.371-20.022 0.303-3.034 0.809-6.168 1.719-9.202 1.719 8.090 14.157 12.236 21.741 11.326 0 0 0 0 0 0.101-0.202 0.708-0.404 1.618-0.506 2.528-0.202 0-0.506 0-0.708 0-0.506 0.101-0.91 0.202-1.315 0.202-0.91 0-1.82-0.101-2.73-0.303-0.708-0.202-1.315 0.91-0.506 1.315 1.011 0.404 2.022 0.607 3.236 0.506 0.506-0.101 1.112-0.202 1.618-0.404 0.202-0.101 0.303-0.101 0.404-0.202 0 0.708 0 1.315 0.101 1.921-1.416 0.101-2.629 0.404-3.843 1.213-0.404 0.303-0.101 1.011 0.404 0.708 1.112-0.607 2.326-1.112 3.539-1.517 0.101 0.404 0.202 0.809 0.506 1.213 0 0 0 0-0.101 0-4.045 4.753-10.416 13.551-17.191 10.618zM26.983 61.584c-2.022-1.416-4.753-3.438-6.876-3.641-2.124-0.101-3.236 1.922-5.056 2.022-4.247 0.202-0.708-17.696 0.101-20.123 0-0.101 0-0.202 0-0.303 5.157-1.922 9.708-7.888 12.539-11.427 0.202 0.101 0.303 0.303 0.506 0.404 0.506 0.303 1.112 0.404 1.719 0.607-5.258 9.708-4.753 21.741-2.933 32.46zM30.826 27.91c-0.303 0-0.506-0.101-0.809-0.101-3.337-0.607-2.73-5.056-2.326-7.584v-0.101c1.112 0 2.124-0.202 3.236-0.303 0.809-0.101 2.73-0.607 3.337-0.303 1.112 0.506 0.708 2.225 0.708 3.135s0.202 2.124 0 3.034c-0.404 1.921-1.921 2.326-3.539 2.326 0-0.202-0.303-0.202-0.607-0.101zM45.893 38.224c3.135 4.652 4.955 9.809 5.663 15.37-2.326-1.415-4.753-2.528-7.281-3.337 0.101-0.708-0.708-1.315-1.315-0.708-1.719 1.82-3.539 3.539-5.359 5.157 0.607-8.798-1.011-17.696-5.966-25.078 0-0.101 0.101-0.202 0.101-0.404 1.416 0 2.831-0.202 3.64-1.011 0.101-0.101 0.202-0.202 0.303-0.303 0 0.101 0 0.303 0.101 0.404 2.225 3.64 5.865 7.382 10.011 9.607 0 0.101 0 0.202 0.101 0.303zM53.983 38.831c-2.326 0-4.651-0.708-6.775-1.719h-0.101c-4.146-2.023-7.786-5.663-10.213-9.303-0.202-0.404-0.708-0.404-0.91-0.202 0.303-0.506 0.404-1.112 0.404-1.719 1.011 0.202 2.022 0.708 2.73 1.315 0.404 0.404 1.011-0.202 0.607-0.607-0.91-1.112-2.022-1.517-3.337-1.416 0-0.101 0-0.303 0-0.404 0-0.202 0-0.506 0-0.809 1.82-0.101 3.539-0.708 4.955-1.921 0.404-0.303-0.101-1.011-0.506-0.708-1.315 1.011-2.832 1.618-4.45 1.719 0-1.213 0.101-2.528-0.303-3.539 0.101 0 0.101 0 0.202 0 4.955-1.618 9.607-2.73 13.55-6.371 3.034-2.73 5.258-6.472 5.562-10.618 1.618 1.011 2.225 3.135 2.73 4.854 0.91 3.64 1.214 7.483 1.517 11.225 0.607 5.966 3.742 20.325-5.663 20.224z"></path>
</svg>
