<?xml version="1.0" encoding="utf-8"?>
<!-- Generated by IcoMoon.io -->
<!DOCTYPE svg PUBLIC "-//W3C//DTD SVG 1.1//EN" "http://www.w3.org/Graphics/SVG/1.1/DTD/svg11.dtd">
<svg version="1.1" xmlns="http://www.w3.org/2000/svg" xmlns:xlink="http://www.w3.org/1999/xlink" width="64" height="64" viewBox="0 0 64 64">
<path fill="#000" d="M27.284 2.133c-1.347 1.432-1.488 1.432-3.509 0-0.758-0.561-0.786-0.561-1.319-0.028-0.281 0.309-0.842 1.123-1.207 1.825-0.561 1.095-0.786 1.263-1.684 1.347-0.561 0.056-1.46-0.112-2.021-0.393-0.786-0.365-1.067-0.393-1.404-0.112-0.225 0.197-0.421 0.477-0.421 0.618s-0.253 0.814-0.589 1.516l-0.561 1.263-1.46-0.168c-1.909-0.253-2.33 0.197-2.498 2.582-0.056 0.982-0.197 1.825-0.253 1.909-0.084 0.084-0.786 0.225-1.544 0.309-0.758 0.112-1.656 0.365-2.021 0.589-0.59 0.365-0.646 0.533-0.477 1.853 0.225 1.684-0.112 2.133-1.909 2.723-1.432 0.449-1.712 1.067-1.039 2.33 0.814 1.544 0.618 3.565-0.365 3.565-0.505 0-2.161 1.572-2.161 2.049 0 0.225 0.309 0.73 0.702 1.151 0.954 1.039 0.87 1.853-0.281 2.975-0.533 0.533-0.982 1.207-0.982 1.488s0.449 0.954 0.982 1.516c1.46 1.488 1.488 2.049 0.309 3.846-0.561 0.842-1.010 1.628-0.982 1.768 0 0.112 0.646 0.702 1.403 1.291 1.516 1.151 1.6 1.488 0.73 3.284-0.646 1.291-0.477 1.46 2.667 2.751 1.010 0.421 1.207 1.319 0.646 2.947-0.253 0.73-0.393 1.432-0.309 1.572 0.168 0.253 2.105 1.011 3.312 1.263 0.758 0.168 0.786 0.253 0.786 1.825 0 1.909 0.084 1.993 2.526 1.993 1.375 0 1.712 0.112 2.077 0.618 0.253 0.337 0.449 0.898 0.449 1.263 0 0.337 0.281 1.067 0.589 1.628 0.449 0.758 0.674 0.926 0.954 0.702 0.197-0.168 0.982-0.365 1.768-0.477 1.319-0.14 1.404-0.112 1.712 0.646 0.758 1.853 0.982 2.077 1.881 2.077 0.477 0 1.151-0.253 1.516-0.561 1.095-0.926 2.049-0.73 3.256 0.702 0.618 0.674 1.263 1.319 1.488 1.404s0.926-0.197 1.544-0.646c0.646-0.449 1.291-0.898 1.488-0.982 0.168-0.112 0.898 0.253 1.6 0.786 0.73 0.533 1.432 0.982 1.6 0.982s0.926-0.646 1.684-1.46l1.375-1.46 1.797 0.926c0.982 0.533 1.965 0.87 2.19 0.814 0.197-0.084 0.674-0.73 1.011-1.46 0.786-1.572 1.572-2.077 2.246-1.488 0.59 0.533 1.797 0.842 2.161 0.561 0.337-0.253 0.87-1.347 1.151-2.33 0.112-0.393 0.393-0.982 0.618-1.347 0.393-0.59 0.561-0.618 2.049-0.449 2.021 0.225 2.498-0.084 2.498-1.628 0-1.263 0.982-2.47 2.021-2.47 1.825-0.028 1.937-0.168 1.853-2.442-0.056-1.797 0-2.161 0.477-2.498 0.281-0.225 0.674-0.393 0.87-0.393s0.814-0.253 1.347-0.59c1.179-0.702 1.263-1.263 0.393-2.779-0.646-1.095-0.646-1.095-0.084-1.6 0.309-0.281 1.039-0.814 1.6-1.207 0.59-0.393 1.067-0.842 1.067-0.982 0-0.168-0.281-0.73-0.618-1.263-1.347-2.105-1.319-2.077-0.533-3.144 0.393-0.533 0.954-1.179 1.235-1.46 0.702-0.73 0.59-1.375-0.505-2.582-0.533-0.618-0.982-1.263-0.982-1.488 0-0.197 0.393-0.87 0.87-1.488 0.814-1.011 0.842-1.179 0.533-1.796-0.225-0.365-0.477-0.674-0.561-0.674-0.337 0-2.526-2.021-2.526-2.33 0-0.168 0.168-0.505 0.393-0.73 0.225-0.253 0.505-0.926 0.674-1.488 0.253-0.898 0.197-1.095-0.337-1.572-0.309-0.309-0.898-0.646-1.291-0.758-1.067-0.253-1.375-0.954-1.123-2.358 0.393-2.161 0.253-2.33-2.582-2.695-1.488-0.197-1.628-0.421-1.628-2.414 0-2.189-0.281-2.498-2.246-2.498-1.544 0-1.712-0.056-2.077-0.786-0.197-0.421-0.477-1.151-0.561-1.656-0.253-1.123-1.123-1.375-2.751-0.786-1.797 0.618-1.993 0.533-2.751-0.926-0.393-0.73-0.954-1.572-1.235-1.909-0.533-0.561-0.533-0.59-1.6-0.056-0.59 0.281-1.151 0.618-1.235 0.786-0.084 0.14-0.281 0.281-0.449 0.281-0.225 0-1.347-1.095-2.442-2.386-0.505-0.59-0.646-0.561-2.161 0.59-1.404 1.095-2.554 1.291-3.088 0.561-0.197-0.253-0.477-0.449-0.618-0.449s-0.505-0.253-0.786-0.561c-0.281-0.309-0.646-0.561-0.786-0.561-0.168 0-0.842 0.59-1.544 1.291zM30.203 3.116l0.814 0.842-0.674 0.505c-0.561 0.449-0.786 0.449-1.656 0.14-1.235-0.421-1.375-0.73-0.702-1.628 0.674-0.954 1.207-0.898 2.218 0.14zM36.575 3.312c0.505 0.87 0.505 0.898 0 1.067-0.281 0.084-0.73 0.281-1.011 0.421-0.59 0.337-2.161-0.253-2.161-0.786 0-0.449 1.74-1.796 2.218-1.712 0.225 0.056 0.646 0.505 0.954 1.010zM24.112 3.537c1.095 0.225 1.123 0.87 0.084 1.881-0.87 0.842-2.218 1.011-2.47 0.337-0.168-0.421 0.898-2.386 1.291-2.386 0.112 0 0.618 0.084 1.095 0.168zM42.049 4.66c0.73 1.179 0.618 1.516-0.59 1.516-1.46 0-2.526-1.656-1.516-2.302 0.73-0.449 1.488-0.168 2.105 0.786zM33.516 5.474c1.235 1.151 1.291 1.151 2.161 0.449 0.365-0.281 1.067-0.59 1.544-0.702 0.758-0.168 0.982-0.084 1.656 0.73 1.039 1.263 1.937 1.628 3.116 1.263 0.786-0.253 1.039-0.197 1.516 0.225 0.309 0.281 0.561 0.674 0.561 0.898 0 0.197 0.253 0.618 0.59 0.954 0.477 0.477 0.87 0.561 2.161 0.477l1.6-0.084 0.59 1.46c0.758 1.965 1.375 2.554 2.611 2.667 0.982 0.084 1.011 0.112 1.095 1.375 0.084 1.46 0.87 2.414 2.386 2.919l0.898 0.281-0.084 1.825c-0.056 1.768-0.028 1.825 1.095 2.975 1.095 1.123 1.151 1.235 0.842 2.105-0.477 1.404-0.365 1.937 0.674 3.088 0.533 0.618 0.982 1.291 0.982 1.516 0 0.197-0.365 0.954-0.842 1.628l-0.842 1.263 0.702 1.291c0.758 1.432 0.702 1.825-0.393 2.807-0.702 0.646-0.786 2.19-0.14 3.397 0.421 0.814 0.421 0.87-0.365 1.46-1.965 1.572-2.274 2.049-2.386 3.621-0.084 1.319-0.14 1.404-1.263 1.909-1.235 0.561-1.488 1.011-1.488 2.863 0 1.291-0.281 1.516-1.74 1.516-1.011 0-2.47 0.982-2.47 1.628 0 1.067-0.814 1.74-2.077 1.74-1.291 0-2.19 0.702-2.891 2.302-0.393 0.898-1.039 0.982-2.218 0.365-1.151-0.59-1.375-0.533-2.611 0.561-0.814 0.758-1.319 0.982-2.105 0.982-0.646 0-1.095-0.14-1.179-0.421-0.253-0.59-0.561-0.533-1.993 0.421-1.347 0.926-2.358 1.067-3.003 0.421-0.225-0.225-0.533-0.421-0.674-0.421s-0.421-0.197-0.618-0.421c-0.449-0.533-1.572-0.533-1.797 0-0.281 0.758-1.628 0.477-2.779-0.561-1.123-1.039-1.404-1.123-3.060-0.73-0.842 0.197-1.123 0.14-1.6-0.309-0.337-0.281-0.59-0.674-0.59-0.842s-0.365-0.674-0.842-1.095c-0.646-0.618-1.095-0.814-1.965-0.814-1.039 0-1.151-0.084-1.544-1.067-0.618-1.572-0.842-1.881-1.432-1.965-0.281-0.028-1.011-0.225-1.572-0.393-0.954-0.281-1.067-0.421-1.067-1.263 0-1.151-0.982-3.172-1.544-3.172-0.197 0-0.73-0.281-1.151-0.646-0.674-0.59-0.73-0.758-0.477-1.488 0.393-1.179 0.084-1.993-1.039-2.611-0.533-0.281-1.151-0.814-1.375-1.207-0.365-0.646-0.365-0.786 0.197-1.488 0.842-1.067 0.786-2.133-0.225-3.256-0.786-0.926-1.067-1.797-0.618-1.993 0.112-0.056 0.421-0.505 0.702-1.011 0.477-0.954 0.477-0.954-0.365-2.189-0.449-0.702-0.842-1.404-0.842-1.572s0.505-0.87 1.151-1.544c0.87-0.954 1.095-1.404 0.954-1.853-0.084-0.337-0.253-1.067-0.337-1.6-0.112-0.87-0.056-1.039 0.618-1.404 0.421-0.225 0.982-0.73 1.291-1.151 0.477-0.702 0.505-0.898 0.197-2.077-0.337-1.263-0.337-1.347 0.309-1.853 0.365-0.281 0.87-0.533 1.123-0.533 0.814-0.028 1.488-0.786 1.993-2.302 0.449-1.347 0.561-1.488 1.544-1.712 1.432-0.281 2.021-0.842 2.246-2.189 0.225-1.319 0.674-1.628 2.218-1.46 1.095 0.14 1.263 0.056 2.47-1.179l1.319-1.319 1.488 0.197 1.46 0.197 2.358-2.695 1.516 0.758c0.814 0.421 1.628 0.758 1.768 0.758 0.168 0 0.73-0.393 1.263-0.842s1.123-0.814 1.263-0.814c0.168-0.028 0.758 0.421 1.375 0.954zM19.481 6.428c0.084 0.14-0.197 0.646-0.646 1.123-1.46 1.544-3.509 0.982-2.442-0.674 0.365-0.561 0.702-0.702 1.712-0.702 0.674 0 1.291 0.112 1.375 0.253zM47.832 7.326c0.561 1.151 0.393 1.375-1.067 1.375-0.982 0-1.319-0.14-1.656-0.674-0.533-0.786-0.253-1.179 1.123-1.544 0.982-0.281 1.067-0.225 1.6 0.842zM13.839 10.33c-0.028 1.207-0.561 1.796-1.46 1.684-0.618-0.084-0.73-0.225-0.702-1.011 0.084-1.516 0.281-1.796 1.291-1.684 0.842 0.084 0.926 0.168 0.87 1.011zM52.407 11.172c0.281 1.011 0.281 1.235-0.084 1.375-0.954 0.365-1.712-0.168-2.161-1.46l-0.421-1.291 1.151 0.084c1.095 0.084 1.179 0.14 1.516 1.291zM10.049 14.007c0.281 0.168 0.253 0.393-0.14 1.095-0.477 0.87-1.853 1.6-2.358 1.291-0.309-0.168-0.337-1.544-0.028-1.965 0.393-0.618 1.853-0.87 2.526-0.421zM55.719 14.765c0.954 0.168 1.011 0.225 0.926 1.207-0.084 0.842-0.197 1.010-0.786 1.095-0.982 0.112-2.386-1.319-2.105-2.189 0.112-0.337 0.337-0.533 0.561-0.449s0.842 0.225 1.404 0.337zM6.596 19.677c0.168 0.954 0.084 1.235-0.449 1.825-0.814 0.87-1.179 0.73-1.404-0.477-0.112-0.533-0.253-1.151-0.365-1.404-0.14-0.309 0.084-0.533 0.73-0.842 0.505-0.225 1.011-0.393 1.123-0.337 0.084 0.056 0.253 0.59 0.365 1.235zM59.509 20.547c0 0.674-0.786 2.189-1.123 2.189-0.73 0-1.404-1.011-1.404-2.133 0-0.618 0.084-1.207 0.168-1.291s0.646 0.028 1.263 0.281c0.73 0.281 1.095 0.59 1.095 0.954zM4.716 25.319c0.056 0.758-0.084 1.207-0.618 1.796l-0.73 0.814-0.561-0.674c-0.786-0.898-0.702-1.404 0.337-2.33 1.095-0.982 1.46-0.898 1.572 0.393zM60.463 25.825c0.87 0.786 0.954 0.954 0.702 1.656-0.393 1.151-1.179 1.263-1.909 0.281-0.702-0.926-0.814-2.779-0.168-2.779 0.225 0 0.842 0.393 1.375 0.842zM3.453 30.54c0.758 0.814 0.786 3.144 0.056 3.144-0.618 0-1.825-1.375-1.825-2.049 0-0.561 0.73-1.6 1.123-1.6 0.112 0 0.393 0.225 0.646 0.505zM62.035 32.646c0 0.365-1.684 1.881-2.105 1.881-0.702 0-0.561-2.386 0.168-3.116l0.59-0.59 0.674 0.786c0.365 0.449 0.646 0.926 0.674 1.039zM4.772 37.782c0 0.337-0.253 0.898-0.533 1.263-0.477 0.618-0.59 0.618-1.263 0.281-0.898-0.477-0.926-1.179-0.14-2.47l0.59-0.954 0.674 0.618c0.365 0.337 0.674 0.898 0.674 1.263zM60.688 38.091c0.477 0.954 0.561 1.319 0.281 1.432-0.197 0.056-0.533 0.281-0.758 0.533-0.786 0.758-1.404 0.337-1.488-1.039-0.084-1.011 0.028-1.319 0.561-1.74 0.365-0.281 0.674-0.505 0.702-0.505s0.337 0.59 0.702 1.319zM5.277 42.274c1.319 0.646 1.684 2.891 0.477 2.695-1.235-0.225-1.825-0.87-1.825-2.021 0-1.263 0.112-1.319 1.347-0.674zM58.835 43.144c0.898 1.207 0.028 2.611-1.628 2.611-1.095 0-1.067-1.095 0.084-2.218 1.011-1.011 1.067-1.039 1.544-0.393zM8.954 48.112c0.14 0.309 0.337 1.011 0.449 1.488 0.168 0.842 0.112 0.926-0.477 0.926-1.095-0.028-1.628-0.646-1.628-1.881 0-0.618 0.084-1.179 0.168-1.263 0.309-0.337 1.291 0.14 1.488 0.73zM55.719 49.404c0 1.123-0.084 1.235-0.842 1.46-1.067 0.281-1.319 0-1.207-1.347 0.056-0.87 0.225-1.095 0.786-1.263 1.095-0.309 1.263-0.14 1.263 1.151zM11.874 52.267c0.337 0.168 0.786 0.393 1.011 0.505 0.674 0.309 1.039 1.067 0.702 1.404-0.393 0.393-2.639 0.028-2.835-0.449-0.14-0.421 0.112-1.797 0.337-1.797 0.084 0 0.421 0.14 0.786 0.337zM51.874 52.744c0.281 0.168 0.309 0.477 0.14 1.179-0.225 0.87-0.365 0.954-1.46 1.039-1.628 0.112-1.965-0.253-1.151-1.263 0.842-1.095 1.74-1.432 2.47-0.954zM17.207 55.888c0.365 0.168 0.87 0.73 1.095 1.263 0.421 0.926 0.421 0.954-0.225 1.123-1.235 0.309-2.049-0.084-2.246-1.123-0.281-1.516 0.112-1.853 1.375-1.263zM46.793 56.084c0.225 0.14 0.253 0.533 0.084 1.291-0.309 1.46-0.646 1.74-1.6 1.404-1.039-0.337-1.123-1.179-0.225-2.161 0.758-0.786 1.151-0.898 1.74-0.533zM23.635 58.863c0.73 0.646 0.646 1.011-0.449 1.6-0.758 0.393-1.067 0.449-1.544 0.197-0.618-0.337-1.039-1.488-0.73-1.965 0.281-0.477 2.133-0.365 2.723 0.168zM41.46 59.004c1.067 0.87-0.281 2.274-1.797 1.853-1.179-0.309-1.46-1.179-0.59-1.909 0.674-0.561 1.684-0.533 2.386 0.056zM28.912 59.93c0.449 0.225 0.954 0.674 1.123 0.982 0.253 0.449 0.14 0.59-0.702 1.011l-1.011 0.477-1.965-1.909 0.618-0.477c0.73-0.618 0.898-0.618 1.937-0.084zM35.93 60.519c0 0.421-1.516 1.797-1.993 1.797-0.197 0-0.674-0.225-1.039-0.505l-0.646-0.505 0.59-0.533c1.011-0.898 1.768-1.179 2.442-0.842 0.365 0.14 0.646 0.421 0.646 0.59z"></path>
</svg>
