<?xml version="1.0" encoding="utf-8"?>
<!-- Generated by IcoMoon.io -->
<!DOCTYPE svg PUBLIC "-//W3C//DTD SVG 1.1//EN" "http://www.w3.org/Graphics/SVG/1.1/DTD/svg11.dtd">
<svg version="1.1" xmlns="http://www.w3.org/2000/svg" xmlns:xlink="http://www.w3.org/1999/xlink" width="64" height="64" viewBox="0 0 64 64">
<path fill="#8c8d8e" d="M0 0v64h64v-64h-64zM54.128 14.162l-7.519 36.169c-0.177 0.854-1.178 1.241-1.885 0.727l-10.265-7.452c-0.623-0.453-1.473-0.428-2.069 0.058l-5.691 4.639c-0.66 0.54-1.656 0.239-1.909-0.574l-3.952-12.709-10.21-3.81c-1.037-0.389-1.046-1.853-0.012-2.251l41.9-16.164c0.888-0.344 1.805 0.435 1.611 1.367z"></path>
<path fill="#8c8d8e" d="M44.106 20.702l-19.953 12.289c-0.765 0.472-1.125 1.395-0.878 2.26l2.157 7.58c0.153 0.537 0.933 0.482 1.007-0.073l0.561-4.157c0.106-0.783 0.479-1.504 1.058-2.043l16.467-15.307c0.308-0.286-0.061-0.77-0.419-0.55z"></path>
</svg>
