<?xml version="1.0" encoding="utf-8"?>
<!-- Generated by IcoMoon.io -->
<!DOCTYPE svg PUBLIC "-//W3C//DTD SVG 1.1//EN" "http://www.w3.org/Graphics/SVG/1.1/DTD/svg11.dtd">
<svg version="1.1" xmlns="http://www.w3.org/2000/svg" xmlns:xlink="http://www.w3.org/1999/xlink" width="64" height="64" viewBox="0 0 64 64">
<path fill="#000" d="M60.13 42.875c-0.375-0.875-1.25-1.5-2.25-1.625-3-0.125-5.875-0.875-8.625-2 1.5-1.125 3-2.375 4.375-3.75 0.625-0.75 0.875-1.75 0.5-2.625s-1.25-1.5-2.25-1.625c-3.125-0.125-6.125-1.125-8.75-2.75 2-1.125 3.75-2.5 5.375-4.125 0.625-0.75 0.875-1.75 0.5-2.625s-1.25-1.5-2.25-1.625c-4.625-0.25-8.625-2.875-10.75-6.875 2-1.25 3.25-3.5 3.25-6-0-4-3.25-7.25-7.25-7.25s-7.25 3.25-7.25 7.25c0 2.5 1.25 4.75 3.25 6-2.125 4-6.125 6.625-10.75 6.875-1 0-1.875 0.625-2.25 1.625-0.375 0.875-0.125 2 0.5 2.625 1.625 1.625 3.375 3 5.375 4.125-2.625 1.625-5.625 2.625-8.75 2.75-1 0-1.875 0.625-2.25 1.625s-0.125 2 0.5 2.625c1.375 1.375 2.75 2.625 4.375 3.75-2.75 1.25-5.625 1.875-8.625 2-1 0-1.875 0.625-2.25 1.625s-0.125 2 0.5 2.625c5.5 5.625 12.625 9.5 20.25 10.875v5.125c0 1.375 1.125 2.5 2.5 2.5h9.375c1.375 0 2.5-1.125 2.5-2.5v-5.125c7.625-1.5 14.75-5.25 20.25-10.875 1-0.625 1.25-1.75 0.875-2.625zM28.13 60.875v-5.875c1.375 0.125 2.75 0.25 4.125 0.25s2.75-0.125 4.125-0.25v5.875h-8.25zM32.13 3.375c2.25 0 4.125 1.875 4.125 4.125 0 2-1.5 3.625-3.375 4-0.375 0.125-0.875 0.125-1.25 0-1.875-0.25-3.375-2-3.375-4-0.125-2.375 1.625-4.125 3.875-4.125zM31.88 12.75h0.5c2 5.625 7 9.75 12.875 10.5-2.125 1.875-4.625 3.375-7.375 4.125-0.375 0.125-0.625 0.25-1 0.25-0.25 0-0.375 0.125-0.625 0.125-0.375 0.125-0.625 0.125-1 0.25-0.25 0-0.5 0.125-0.75 0.125s-0.625 0.125-0.875 0.125c-0.25 0-0.625 0-0.875 0-0.5 0-0.875 0-1.375 0-0.25 0-0.625 0-0.875 0s-0.625-0.125-0.875-0.125-0.5 0-0.75-0.125c-0.375 0-0.625-0.125-1-0.25-0.25 0-0.375-0.125-0.625-0.125-0.375-0.125-0.625-0.125-1-0.25-2.75-0.875-5.25-2.25-7.375-4.125 5.875-0.875 11-4.875 13-10.5zM26.005 28.625c0.125 0 0.25 0.125 0.375 0.125 0.375 0.125 0.75 0.25 1.125 0.25 0.25 0 0.5 0.125 0.875 0.125s0.75 0.125 1 0.125 0.5 0.125 0.75 0.125c0.5 0 1 0 1.375 0.125 0.125 0 0.25 0 0.375 0s0.25 0 0.375 0c0.5 0 1 0 1.375-0.125 0.25 0 0.5 0 0.75-0.125 0.375 0 0.75-0.125 1-0.125s0.625-0.125 0.875-0.125c0.375-0.125 0.75-0.25 1.125-0.25 0.125 0 0.25-0.125 0.375-0.125 3.375 3.25 7.625 5.125 12.25 5.75-2.375 2.25-5.125 4-8.125 5.125-0.25 0.125-0.5 0.25-0.75 0.25-0.625 0.25-1.125 0.375-1.75 0.625-0.125 0-0.25 0.125-0.5 0.125-0.625 0.125-1.25 0.375-1.875 0.5-0.125 0-0.25 0.125-0.5 0.125-0.75 0.125-1.375 0.25-2.125 0.25-0.125 0-0.25 0-0.375 0-0.75 0.125-1.5 0.125-2.25 0.125s-1.5 0-2.25-0.125c-0.125 0-0.25 0-0.375 0-0.75-0.125-1.5-0.125-2.125-0.25-0.125 0-0.25 0-0.5-0.125-0.625-0.125-1.25-0.25-1.875-0.5-0.125 0-0.25-0.125-0.5-0.125-0.625-0.125-1.125-0.375-1.75-0.625-0.25-0.125-0.5-0.25-0.75-0.25-3-1.25-5.75-3-8.125-5.125 4.875-0.5 9.125-2.5 12.5-5.75v0zM20.005 40.125c0.25 0.125 0.375 0.125 0.625 0.25s0.5 0.25 0.75 0.375c0.625 0.25 1.375 0.5 2 0.75 0.25 0.125 0.375 0.125 0.625 0.25 0.75 0.25 1.5 0.375 2.25 0.625 0.125 0 0.25 0 0.5 0.125 0.75 0.125 1.625 0.25 2.375 0.375 0.125 0 0.25 0 0.25 0 0.875 0.125 1.75 0.125 2.625 0.125s1.75 0 2.625-0.125c0.125 0 0.25 0 0.25 0 0.875-0.125 1.625-0.25 2.375-0.375 0.125 0 0.25 0 0.5-0.125 0.75-0.125 1.5-0.375 2.25-0.625 0.25-0.125 0.375-0.125 0.625-0.25 0.625-0.25 1.375-0.5 2-0.75 0.25-0.125 0.5-0.25 0.75-0.375s0.375-0.125 0.625-0.25c3.75 2.375 7.875 3.875 12.25 4.25-5.25 5-11.875 8.25-19 9.25l-0.75 0.125c-0.75 0.125-1.5 0.125-2.25 0.25h-0.125c-1.5 0.125-2.875 0.125-4.375 0h-0.125c-0.75 0-1.5-0.125-2.25-0.25l-0.75-0.125c-7.125-1.125-13.625-4.25-19-9.25 4.5-0.5 8.751-1.875 12.376-4.25z"></path>
<path fill="#000" d="M20.505 42.75c-1.75 0-3.125 1.375-3.125 3.125s1.375 3.125 3.125 3.125c1.75 0 3.125-1.375 3.125-3.125s-1.375-3.125-3.125-3.125zM20.505 47.625c-1 0-1.875-0.875-1.875-1.875s0.875-1.875 1.875-1.875c1 0 1.875 0.875 1.875 1.875s-0.875 1.875-1.875 1.875z"></path>
<path fill="#000" d="M39.255 37.875c1.75 0 3.125-1.375 3.125-3.125s-1.375-3.125-3.125-3.125c-1.75 0-3.125 1.375-3.125 3.125s1.5 3.125 3.125 3.125zM39.255 33c1 0 1.875 0.875 1.875 1.875s-0.875 1.875-1.875 1.875-1.875-0.875-1.875-1.875c0-1 0.875-1.875 1.875-1.875z"></path>
<path fill="#000" d="M29.88 26.125c1.75 0 3.125-1.375 3.125-3.125s-1.375-3.125-3.125-3.125-3.125 1.375-3.125 3.125c0 1.75 1.5 3.125 3.125 3.125zM29.88 21.25c1 0 1.875 0.875 1.875 1.875s-0.875 1.875-1.875 1.875-1.875-0.875-1.875-1.875 0.875-1.875 1.875-1.875z"></path>
</svg>
