<?xml version="1.0" encoding="utf-8"?>
<!-- Generated by IcoMoon.io -->
<!DOCTYPE svg PUBLIC "-//W3C//DTD SVG 1.1//EN" "http://www.w3.org/Graphics/SVG/1.1/DTD/svg11.dtd">
<svg version="1.1" xmlns="http://www.w3.org/2000/svg" xmlns:xlink="http://www.w3.org/1999/xlink" width="64" height="64" viewBox="0 0 64 64">
<path fill="#76a9ea" d="M62.982 11.575c-1.422 0.631-2.898 1.128-4.413 1.488 1.669-1.586 2.924-3.57 3.632-5.784v0c0.202-0.632-0.484-1.179-1.055-0.84v0c-2.107 1.25-4.377 2.188-6.746 2.787-0.138 0.035-0.279 0.052-0.422 0.052-0.432 0-0.851-0.16-1.181-0.451-2.521-2.222-5.763-3.446-9.13-3.446-1.457 0-2.927 0.227-4.371 0.675-4.474 1.388-7.926 5.078-9.009 9.631-0.406 1.708-0.516 3.417-0.327 5.081 0.022 0.191-0.069 0.325-0.124 0.387-0.098 0.11-0.237 0.173-0.381 0.173-0.016 0-0.033-0.001-0.049-0.002-9.793-0.91-18.624-5.628-24.867-13.285v0c-0.318-0.391-0.929-0.343-1.182 0.092v0c-1.222 2.097-1.868 4.496-1.868 6.937 0 3.741 1.503 7.266 4.113 9.835-1.098-0.26-2.16-0.67-3.147-1.218v0c-0.478-0.265-1.065 0.076-1.072 0.622v0c-0.068 5.557 3.185 10.501 8.059 12.728-0.098 0.002-0.196 0.003-0.295 0.003-0.773 0-1.555-0.075-2.325-0.222v0c-0.538-0.103-0.989 0.407-0.822 0.929v0c1.582 4.939 5.834 8.579 10.923 9.406-4.223 2.835-9.142 4.331-14.26 4.331l-1.596-0.001c-0.492 0-0.907 0.321-1.033 0.797-0.123 0.469 0.104 0.964 0.523 1.208 5.768 3.357 12.348 5.131 19.030 5.131 5.849 0 11.32-1.161 16.262-3.45 4.53-2.099 8.534-5.098 11.899-8.916 3.135-3.556 5.586-7.662 7.286-12.202 1.62-4.328 2.477-8.946 2.477-13.355v-0.21c-0-0.708 0.32-1.374 0.879-1.828 2.12-1.721 3.966-3.747 5.486-6.022v0c0.401-0.601-0.232-1.353-0.892-1.060v0z"></path>
</svg>
