<?xml version="1.0" encoding="utf-8"?>
<!-- Generated by IcoMoon.io -->
<!DOCTYPE svg PUBLIC "-//W3C//DTD SVG 1.1//EN" "http://www.w3.org/Graphics/SVG/1.1/DTD/svg11.dtd">
<svg version="1.1" xmlns="http://www.w3.org/2000/svg" xmlns:xlink="http://www.w3.org/1999/xlink" width="45" height="64" viewBox="0 0 45 64">
<path fill="#989898" d="M32.213 32c0 0-2.453 0.427-2.773 0.533-0.853 0.213-1.707 0.427-2.56 0.747-1.387 0.64-0.747 0.747-2.133-0.107-0.32-0.107-2.133-1.173-2.133-1.173 0-0.107 1.813-1.173 2.133-1.28 1.387-0.747 0.747-0.64 2.133-0.107 0.853 0.32 1.707 0.64 2.56 0.853 0.32 0.107 2.773 0.533 2.773 0.533zM37.013 38.827c1.493-0.427 3.413-1.92 3.627-3.627 0.107-0.427 0-0.96-0.107-1.387-0.533-1.28-1.92-1.707-2.027-1.813 0.107-0.213 1.387-0.533 2.027-1.813 0.107-0.533 0.213-0.96 0.107-1.493 0 0 0-0.107 0-0.107-0.427-1.6-2.133-2.987-3.627-3.413-2.88-0.853-4.907 0.747-7.253 2.133-0.96 0.533-2.027 1.173-2.987 1.707-0.213 0.107-0.533 0.32-0.747 0.427-0.32 0.213-0.533 0-0.747-0.213-1.6-0.96-2.667-2.24-3.093-4.053h-0.107c-0.427 1.813-1.493 3.093-2.987 4.053-0.32 0.213-0.533 0.427-0.853 0.213-0.213-0.107-0.427-0.32-0.747-0.427-0.96-0.533-2.027-1.173-2.987-1.707-2.347-1.387-4.267-2.987-7.253-2.133-1.387 0.427-3.2 1.813-3.627 3.307 0 0.107 0 0.107 0 0.213-0.107 0.533 0 0.96 0.213 1.493 0.533 1.28 1.813 1.6 1.92 1.813 0 0-0.853 0.427-1.173 0.747-0.747 0.64-1.173 1.493-0.96 2.453 0 0.107 0 0.107 0 0.213 0.427 1.493 2.24 2.987 3.627 3.413 2.987 0.853 4.907-0.747 7.253-2.133 0.96-0.533 2.027-1.173 2.987-1.707 0.32-0.213 0.533-0.32 0.747-0.427 0.32-0.213 0.533 0 0.747 0.107 0.533 0.32 0.96 0.64 1.387 1.067 0.853 0.853 1.387 1.92 1.707 3.093h0.107c0.427-1.813 1.493-3.2 3.093-4.16 0.213-0.107 0.427-0.32 0.747-0.107 0.213 0.107 0.427 0.213 0.747 0.427 0.96 0.533 2.027 1.173 2.987 1.707 2.347 1.387 4.267 2.987 7.253 2.133zM37.12 38.293c-1.173 0.32-2.24 0.32-3.413 0-1.387-0.32-5.973-3.307-7.467-4.16 0.427-0.427 3.947-1.28 4.693-1.493 0.853-0.107 1.813-0.213 2.667-0.32 0.96-0.107 2.027-0.107 2.88-0.213 0.107 0-0.32 0.32-0.32 0.32-0.427 0.427-0.64 0.96-0.64 1.493 0 0.747 0.427 1.493 1.067 1.707 2.347 0.96 3.307-1.707 1.707-2.133l-0.107 0.427c0.213 0.213 0.533 0.213 0.427 0.747-0.213 0.96-1.813 0.96-2.347 0.107-0.853-1.067 0.213-2.667 1.6-2.453 1.067 0.107 2.24 1.173 2.347 2.347 0.107 1.6-1.707 3.093-3.093 3.627zM32.32 26.24c1.387-0.64 1.28-0.747 3.093-0.853 0.64 0 1.173 0.107 1.707 0.32 1.387 0.427 3.2 2.027 3.093 3.52-0.107 1.173-1.28 2.24-2.347 2.453-1.387 0.213-2.453-1.387-1.6-2.56 0.533-0.747 2.133-0.747 2.347 0.107 0.107 0.64-0.213 0.64-0.427 0.853l0.107 0.427c1.6-0.533 0.64-3.2-1.707-2.24-0.64 0.32-1.067 0.96-1.067 1.707 0 0.853 0.427 1.387 0.96 1.92-0.213 0.107-4.907-0.427-5.547-0.64-0.64-0.107-4.267-0.96-4.693-1.387 2.027-1.173 4.693-2.88 6.080-3.627zM8.853 38.613c-0.64-0.107-1.173-0.213-1.707-0.32-1.387-0.533-3.2-2.027-3.093-3.627 0.107-1.173 1.28-2.133 2.347-2.347 1.387-0.213 2.453 1.387 1.6 2.453-0.32 0.533-1.173 0.747-1.707 0.533-0.32-0.107-0.533-0.32-0.64-0.64-0.107-0.533 0.32-0.533 0.427-0.747l-0.107-0.427c-1.493 0.427-0.64 3.093 1.707 2.133 0.64-0.213 1.067-0.96 1.067-1.707s-0.32-1.387-0.96-1.813c0.213-0.107 4.907 0.427 5.547 0.533 0.747 0.213 4.373 1.067 4.693 1.493-2.24 1.28-6.613 4.48-9.173 4.48zM7.147 25.707c0.533-0.213 1.067-0.32 1.707-0.32 0.747 0 1.067 0 1.707 0.213 1.387 0.427 5.973 3.307 7.467 4.267-0.32 0.427-3.947 1.28-4.693 1.387-0.853 0.213-1.813 0.32-2.667 0.427-0.96 0.107-2.027 0.107-2.88 0.213 0 0 0.32-0.32 0.32-0.32 1.067-1.067 0.747-2.773-0.427-3.307-2.347-0.96-3.2 1.707-1.707 2.24l0.107-0.427c-0.107-0.213-0.533-0.213-0.427-0.747 0.107-0.32 0.32-0.533 0.64-0.64 0.533-0.213 1.387 0 1.707 0.427 0.853 1.173-0.107 2.773-1.6 2.56-1.067-0.213-2.24-1.28-2.347-2.347-0.107-1.6 1.707-3.2 3.093-3.627zM18.987 29.867c0 0 0.853-0.64 0.96-0.64 0.64-0.533 1.173-1.067 1.6-1.813 0.107-0.107 0.64-1.067 0.64-1.067s0.427 1.173 1.28 2.027c0.213 0.32 0.533 0.533 0.853 0.853 0.213 0.213 0.747 0.427 0.96 0.64 0 0-2.987 1.813-3.093 1.813-0.213 0-2.773-1.6-3.2-1.813zM22.187 37.653c-0.107-0.107-0.533-1.28-1.28-2.027-0.32-0.32-0.64-0.533-0.96-0.853-0.213-0.213-0.747-0.533-0.96-0.64 0-0.107 3.093-1.813 3.2-1.813s2.667 1.6 3.093 1.813c0.107 0-0.853 0.533-0.96 0.64-0.64 0.533-1.173 1.067-1.6 1.707-0.107 0.213-0.533 1.173-0.533 1.173zM12.053 32c0 0 2.453-0.427 2.773-0.533 0.853-0.213 1.707-0.533 2.56-0.853 1.387-0.533 0.853-0.64 2.24 0.107 0.213 0.107 2.027 1.173 2.027 1.28 0 0-1.813 1.067-2.027 1.173-1.387 0.853-0.853 0.747-2.24 0.107-0.853-0.32-1.707-0.533-2.56-0.747-0.32-0.107-2.773-0.533-2.773-0.533z"></path>
</svg>
