<?xml version="1.0" encoding="utf-8"?>
<!-- Generated by IcoMoon.io -->
<!DOCTYPE svg PUBLIC "-//W3C//DTD SVG 1.1//EN" "http://www.w3.org/Graphics/SVG/1.1/DTD/svg11.dtd">
<svg version="1.1" xmlns="http://www.w3.org/2000/svg" xmlns:xlink="http://www.w3.org/1999/xlink" width="64" height="64" viewBox="0 0 64 64">
<path fill="#8c8d8e" d="M0 0v64h64v-64h-64zM52.876 47.453c-1.737 5.164-5.984 7.303-11.012 5.255-7.242-2.95-13.485-6.919-18.595-12.029s-9.079-11.353-12.029-18.595c-2.048-5.029 0.090-9.276 5.255-11.012 0.927-0.312 1.835-0.334 2.746 0.002 2.202 0.81 7.779 8.486 7.904 10.783 0.096 1.762-1.101 2.716-2.289 3.522-2.244 1.524-2.256 3.457-1.298 5.612 0.965 2.169 2.203 4.066 3.768 5.632s3.463 2.803 5.632 3.768c2.155 0.959 4.088 0.947 5.612-1.297 0.806-1.188 1.76-2.385 3.522-2.289 2.297 0.125 9.973 5.702 10.783 7.904 0.335 0.911 0.313 1.819 0.002 2.746zM45.621 27.585c-0.194-2.231-1.232-4.391-2.924-6.083-1.769-1.77-4.067-2.859-6.468-3.067-0.661-0.057-1.324-0.044-1.969 0.038-0.807 0.103-1.549-0.469-1.652-1.278s0.469-1.549 1.278-1.652c0.853-0.109 1.728-0.126 2.599-0.051 3.093 0.268 6.042 1.661 8.302 3.921 2.183 2.183 3.524 4.994 3.778 7.916 0.070 0.811 0.054 1.628-0.047 2.426-0.095 0.746-0.73 1.291-1.463 1.291-0.062 0-0.125-0.004-0.188-0.012-0.809-0.103-1.382-0.842-1.279-1.651 0.075-0.591 0.087-1.197 0.034-1.799zM40.716 28.010c-0.201-2.318-2.451-4.457-4.913-4.67-0.196-0.017-0.391-0.022-0.579-0.014-0.814 0.032-1.503-0.6-1.537-1.415s0.6-1.503 1.415-1.537c0.313-0.013 0.635-0.005 0.956 0.022 3.934 0.341 7.272 3.573 7.6 7.358 0.030 0.346 0.033 0.693 0.010 1.031-0.053 0.78-0.702 1.377-1.472 1.377-0.034 0-0.068-0.001-0.102-0.003-0.814-0.055-1.429-0.76-1.373-1.574 0.013-0.186 0.011-0.38-0.006-0.575zM53.291 31.109c-0.125 0.718-0.749 1.224-1.453 1.224-0.084 0-0.169-0.007-0.255-0.022-0.804-0.14-1.342-0.904-1.202-1.708 0.196-1.129 0.245-2.288 0.145-3.444-0.293-3.383-1.837-6.629-4.347-9.139-2.588-2.588-5.97-4.182-9.525-4.49-1.153-0.1-2.309-0.060-3.435 0.118-0.806 0.128-1.562-0.422-1.69-1.227s0.422-1.562 1.227-1.69c1.363-0.216 2.76-0.264 4.153-0.144 4.246 0.368 8.28 2.266 11.358 5.345 3.001 3.001 4.848 6.898 5.201 10.972 0.122 1.41 0.063 2.824-0.177 4.204z"></path>
</svg>
