<?xml version="1.0" encoding="utf-8"?>
<!-- Generated by IcoMoon.io -->
<!DOCTYPE svg PUBLIC "-//W3C//DTD SVG 1.1//EN" "http://www.w3.org/Graphics/SVG/1.1/DTD/svg11.dtd">
<svg version="1.1" xmlns="http://www.w3.org/2000/svg" xmlns:xlink="http://www.w3.org/1999/xlink" width="64" height="64" viewBox="0 0 64 64">
<path fill="#000" d="M55.081 36.92c2.123 2.073 4.364 4.023 6.268 6.305 0.841 1.014 1.637 2.060 2.247 3.237 0.863 1.673 0.081 3.514-1.419 3.613l-9.324-0.004c-2.405 0.2-4.323-0.769-5.936-2.413-1.291-1.315-2.486-2.714-3.728-4.074-0.509-0.556-1.041-1.078-1.678-1.492-1.273-0.826-2.378-0.573-3.105 0.754-0.741 1.35-0.909 2.845-0.982 4.35-0.1 2.196-0.764 2.773-2.969 2.873-4.713 0.222-9.186-0.491-13.341-2.868-3.663-2.096-6.504-5.055-8.977-8.405-4.814-6.523-8.501-13.691-11.815-21.059-0.746-1.66-0.2-2.551 1.631-2.583 3.042-0.059 6.083-0.055 9.128-0.004 1.236 0.018 2.055 0.727 2.532 1.895 1.646 4.046 3.659 7.896 6.187 11.465 0.673 0.95 1.359 1.9 2.337 2.569 1.081 0.74 1.904 0.495 2.413-0.709 0.323-0.764 0.464-1.586 0.537-2.404 0.241-2.814 0.273-5.623-0.15-8.428-0.259-1.75-1.245-2.883-2.992-3.214-0.891-0.169-0.759-0.5-0.327-1.009 0.749-0.877 1.454-1.423 2.859-1.423h10.537c1.659 0.327 2.027 1.073 2.254 2.742l0.009 11.705c-0.018 0.646 0.323 2.564 1.487 2.991 0.931 0.305 1.546-0.441 2.104-1.031 2.523-2.678 4.324-5.842 5.932-9.119 0.714-1.441 1.328-2.937 1.923-4.432 0.441-1.109 1.132-1.655 2.382-1.631l10.141 0.009c0.301 0 0.605 0.004 0.896 0.054 1.709 0.291 2.177 1.026 1.649 2.695-0.832 2.618-2.45 4.8-4.032 6.992-1.691 2.34-3.5 4.6-5.177 6.954-1.541 2.15-1.419 3.233 0.496 5.1v0z"></path>
</svg>
