<?xml version="1.0" encoding="utf-8"?>
<!-- Generated by IcoMoon.io -->
<!DOCTYPE svg PUBLIC "-//W3C//DTD SVG 1.1//EN" "http://www.w3.org/Graphics/SVG/1.1/DTD/svg11.dtd">
<svg version="1.1" xmlns="http://www.w3.org/2000/svg" xmlns:xlink="http://www.w3.org/1999/xlink" width="64" height="64" viewBox="0 0 64 64">
<path fill="#7ad06d" d="M30.448 0.037c-16.902 0.805-30.241 14.881-30.189 31.803 0.016 5.154 1.26 10.018 3.455 14.317l-3.37 16.358c-0.182 0.885 0.616 1.66 1.495 1.452l16.029-3.798c4.118 2.051 8.744 3.236 13.639 3.311 17.276 0.264 31.681-13.454 32.219-30.723 0.577-18.512-14.701-33.604-33.277-32.719zM49.574 49.316c-4.694 4.694-10.936 7.279-17.574 7.279-3.887 0-7.609-0.872-11.062-2.592l-2.232-1.112-9.827 2.328 2.069-10.042-1.1-2.154c-1.793-3.51-2.701-7.306-2.701-11.283 0-6.639 2.585-12.88 7.279-17.574 4.652-4.652 10.995-7.28 17.575-7.28 6.639 0 12.88 2.585 17.574 7.279s7.279 10.935 7.28 17.574c-0 6.579-2.627 12.923-7.28 17.575z"></path>
<path fill="#7ad06d" d="M47.405 38.625l-6.148-1.765c-0.808-0.232-1.679-0.003-2.268 0.597l-1.504 1.532c-0.634 0.646-1.596 0.853-2.435 0.514-2.908-1.177-9.027-6.617-10.589-9.338-0.451-0.785-0.376-1.766 0.177-2.482l1.313-1.698c0.514-0.665 0.623-1.559 0.283-2.328l-2.587-5.85c-0.62-1.401-2.41-1.809-3.58-0.82-1.716 1.451-3.752 3.657-4 6.1-0.436 4.308 1.411 9.738 8.397 16.258 8.071 7.533 14.534 8.528 18.742 7.509 2.387-0.578 4.294-2.896 5.498-4.793 0.821-1.294 0.173-3.012-1.3-3.435z"></path>
</svg>
