<?xml version="1.0" encoding="utf-8"?>
<!-- Generated by IcoMoon.io -->
<!DOCTYPE svg PUBLIC "-//W3C//DTD SVG 1.1//EN" "http://www.w3.org/Graphics/SVG/1.1/DTD/svg11.dtd">
<svg version="1.1" xmlns="http://www.w3.org/2000/svg" xmlns:xlink="http://www.w3.org/1999/xlink" width="10" height="64" viewBox="0 0 10 64">
<path fill="#d7b56d" d="M2.14 63.909c0.121-0.003 0.241-0.050 0.332-0.139l8.375-8.276c0.179-0.177 0.171-0.462-0.017-0.629l-8.102-7.21 8.054-7.959c0.178-0.177 0.171-0.46-0.016-0.629l-8.072-7.179 8.093-7.997c0.18-0.179 0.172-0.461-0.017-0.629l-8.103-7.209 8.053-7.958c0.181-0.178 0.173-0.46-0.016-0.629l-8.352-7.429c-0.189-0.169-0.491-0.161-0.671 0.018s-0.173 0.46 0.016 0.629l8.007 7.124-8.047 7.953c-0.18 0.178-0.173 0.46 0.016 0.629 0.013 0.011 0.028 0.015 0.042 0.025 0.017 0.021 0.026 0.045 0.048 0.064l8.008 7.125-8.048 7.953c-0.114 0.113-0.144 0.265-0.11 0.405 0 0.117 0.047 0.236 0.145 0.323l8.011 7.126-8.053 7.951c-0.179 0.177-0.172 0.462 0.016 0.629 0.014 0.012 0.029 0.017 0.043 0.023 0.018 0.020 0.027 0.046 0.049 0.063l8.007 7.126-8.048 7.952c-0.181 0.179-0.173 0.461 0.016 0.629 0.093 0.089 0.215 0.128 0.338 0.124z"></path>
</svg>
